<svg xmlns="http://www.w3.org/2000/svg" viewBox="2827 1949 44.84 45">
  <defs>
    <style>
      .cls-1 {
        fill: #f8902f;
      }
    </style>
  </defs>
  <g id="_002-rocket-ship" data-name="002-rocket-ship" transform="translate(2826.293 1949)">
    <g id="Group_54" data-name="Group 54" transform="translate(0.707 0)">
      <g id="Group_53" data-name="Group 53" transform="translate(0 0)">
        <path id="Path_2" data-name="Path 2" class="cls-1" d="M62.3.913a.85.85,0,0,0-.74-.74A23.234,23.234,0,0,0,42.28,6.8l-5.668,5.668L28.43,13.526a.851.851,0,0,0-.493.242l-7.889,7.889a.851.851,0,0,0,.447,1.438l5.965,1.1,1.172,1.172-2.5,1.351a.85.85,0,0,0-.2,1.349L34.4,37.534a.85.85,0,0,0,1.349-.2l1.351-2.5,1.172,1.172,1.1,5.965a.851.851,0,0,0,1.438.446l7.889-7.889a.851.851,0,0,0,.242-.493L50,25.862l5.668-5.668a23.366,23.366,0,0,0,5.543-8.874A23.367,23.367,0,0,0,62.3.913ZM26.59,22.494l-4.195-.777,6.54-6.54,5.708-.736ZM34.8,35.525l-7.85-7.849,1.937-1.049,6.961,6.961Zm12.5-1.986-6.54,6.54-.777-4.194,8.053-8.053Zm7.171-14.548L39.063,34.4,28.077,23.411,43.483,8.006a21.655,21.655,0,0,1,7.971-5.045,10.177,10.177,0,0,0,8.06,8.06A21.66,21.66,0,0,1,54.468,18.992Zm5.557-9.6a8.484,8.484,0,0,1-6.938-6.938,21.7,21.7,0,0,1,7.6-.659A21.7,21.7,0,0,1,60.026,9.387Z" transform="translate(-17.635 0)"/>
        <path id="Path_3" data-name="Path 3" class="cls-1" d="M209.529,98.647a5.16,5.16,0,0,0,7.3,7.3h0a5.16,5.16,0,0,0-7.3-7.3Zm6.094,6.094a3.457,3.457,0,1,1,0-4.891A3.463,3.463,0,0,1,215.623,104.741Z" transform="translate(-184.51 -86.123)"/>
        <path id="Path_4" data-name="Path 4" class="cls-1" d="M29.962,297.217a.851.851,0,0,0-1.2,0l-7.3,7.3a.851.851,0,0,0,1.2,1.2l7.3-7.3A.851.851,0,0,0,29.962,297.217Z" transform="translate(-18.888 -263.292)"/>
        <path id="Path_5" data-name="Path 5" class="cls-1" d="M80.612,317.723l-3.288,3.288a.851.851,0,0,0,1.2,1.2l3.288-3.288a.851.851,0,0,0-1.2-1.2Z" transform="translate(-68.415 -281.472)"/>
        <path id="Path_6" data-name="Path 6" class="cls-1" d="M62.481,361.919a.851.851,0,1,0,.785.525A.858.858,0,0,0,62.481,361.919Z" transform="translate(-54.722 -320.877)"/>
        <path id="Path_7" data-name="Path 7" class="cls-1" d="M76,366.434c.022.051-.02-.051,0,0Z" transform="translate(-67.456 -324.867)"/>
        <path id="Path_8" data-name="Path 8" class="cls-1" d="M42.422,378.079l-.453.453a.851.851,0,0,0,1.2,1.2l.453-.453a.851.851,0,0,0-1.2-1.2Z" transform="translate(-37.069 -334.983)"/>
        <path id="Path_9" data-name="Path 9" class="cls-1" d="M5.447,312.066a.851.851,0,0,0-1.2,0L.956,315.354a.851.851,0,0,0,1.2,1.2l3.288-3.288A.851.851,0,0,0,5.447,312.066Z" transform="translate(-0.707 -276.457)"/>
        <path id="Path_10" data-name="Path 10" class="cls-1" d="M46.233,298.055a.85.85,0,1,0-.915-.356c-.007-.01-.012-.018,0,0s.009.013,0,0A.86.86,0,0,0,46.233,298.055Z" transform="translate(-40.136 -262.772)"/>
        <path id="Path_11" data-name="Path 11" class="cls-1" d="M62.515,278.367l.453-.453a.85.85,0,1,0-1.2-1.2l-.453.453a.85.85,0,0,0,1.2,1.2Z" transform="translate(-54.219 -245.111)"/>
      </g>
    </g>
  </g>
</svg>
