<svg xmlns="http://www.w3.org/2000/svg" viewBox="2416 1949 54.002 45">
  <defs>
    <style>
      .cls-1 {
        fill: #f8902f;
      }
    </style>
  </defs>
  <g id="_003-money" data-name="003-money" transform="translate(2416.001 1906.327)">
    <g id="Group_56" data-name="Group 56" transform="translate(-0.001 42.673)">
      <g id="Group_55" data-name="Group 55" transform="translate(0)">
        <path id="Path_19" data-name="Path 19" class="cls-1" d="M250.159,138.808a21.411,21.411,0,0,0-7.351.327,1.125,1.125,0,1,0,.477,2.2,19.133,19.133,0,0,1,6.569-.3,1.125,1.125,0,1,0,.305-2.229Z" transform="translate(-216.406 -128.509)"/>
        <path id="Path_20" data-name="Path 20" class="cls-1" d="M392.814,194.4a1.125,1.125,0,0,0-.445,1.527c.089.162.173.326.251.488a1.125,1.125,0,1,0,2.028-.974c-.1-.2-.2-.4-.307-.6A1.124,1.124,0,0,0,392.814,194.4Z" transform="translate(-350.86 -178.269)"/>
        <path id="Path_21" data-name="Path 21" class="cls-1" d="M386.242,230.843a1.125,1.125,0,0,0-.961,1.268,10.014,10.014,0,0,1-2.026,7.559,1.125,1.125,0,1,0,1.779,1.378,12.247,12.247,0,0,0,2.476-9.245A1.126,1.126,0,0,0,386.242,230.843Z" transform="translate(-342.622 -210.987)"/>
        <path id="Path_22" data-name="Path 22" class="cls-1" d="M50.642,61.8a3.325,3.325,0,0,0-1.362.291,15.054,15.054,0,0,0-4.994-9.006,19.9,19.9,0,0,0-10.113-4.46,4.5,4.5,0,1,0-8.506.036,26.074,26.074,0,0,0-5.428,1.475L14.54,45.2a1.125,1.125,0,0,0-1.856.738l-.754,7.491a12.787,12.787,0,0,0-6.309,8.15c-.563,2.076-.921,2.2-2.075,2.294A3.78,3.78,0,0,0,.508,65.392a3.809,3.809,0,0,0-.23,3.392l1.307,4.064c.614,1.909,1.753,2.31,2.6,2.31h1.25c2.908,3.786,5.606,4.686,9.12,5.562-.113,1.445-.31,3.159-.5,4.7H11.18a1.125,1.125,0,0,0,0,2.25H23.166a1.125,1.125,0,1,0,0-2.25h-.43l.7-2.37a22.264,22.264,0,0,0,8.938-.62q.021.182.043.367a26.942,26.942,0,0,1,.257,3.721A1.125,1.125,0,0,0,33.8,87.673H44.218a1.125,1.125,0,1,0,0-2.25H41.755A31.264,31.264,0,0,1,46,75.478a16.689,16.689,0,0,0,3.532-10.306,1.108,1.108,0,1,1,2.216,0,1.142,1.142,0,0,1-.327.8,1.125,1.125,0,1,0,1.6,1.585A3.378,3.378,0,0,0,50.642,61.8ZM29.916,44.923a2.25,2.25,0,1,1-2.25,2.25A2.253,2.253,0,0,1,29.916,44.923ZM44.223,74.1c-1.8,2.318-3.816,7.14-4.781,11.322H34.909c-.042-1.015-.156-1.993-.26-2.885-.067-.576-.131-1.12-.167-1.61a1.125,1.125,0,0,0-1.422-1c-4.16,1.151-7.206,1.37-10.185.735a1.125,1.125,0,0,0-1.314.783l-1.169,3.977H16.321c.228-1.861.458-3.929.544-5.51a1.125,1.125,0,0,0-.857-1.154c-3.924-.957-6.292-1.534-9.1-5.389A1.125,1.125,0,0,0,6,72.907H4.185c-.16,0-.346-.4-.457-.749L2.421,68.095a1.827,1.827,0,0,1-.04-1.455,1.815,1.815,0,0,1,1.355-.528c2.57-.217,3.409-1.554,4.058-3.947a10.594,10.594,0,0,1,5.715-7.035,1.126,1.126,0,0,0,.6-.886l.6-5.927,4.584,3.97a1.124,1.124,0,0,0,1.178.184,24.323,24.323,0,0,1,6.687-1.747,4.485,4.485,0,0,0,5.55-.025c7.137.781,14.578,4.962,14.578,14.474A14.458,14.458,0,0,1,44.223,74.1Z" transform="translate(0.001 -42.673)"/>
        <path id="Path_23" data-name="Path 23" class="cls-1" d="M117.915,213.259a1.125,1.125,0,1,0,1.125,1.125A1.127,1.127,0,0,0,117.915,213.259Z" transform="translate(-104.472 -195.267)"/>
        <path id="Path_24" data-name="Path 24" class="cls-1" d="M266.912,447.994h-1.05a1.125,1.125,0,0,0,0,2.25h1.05a1.125,1.125,0,0,0,0-2.25Z" transform="translate(-236.815 -405.244)"/>
      </g>
    </g>
  </g>
</svg>
