<?xml version="1.0" encoding="utf-8"?>
<!-- Generator: Adobe Illustrator 21.0.0, SVG Export Plug-In . SVG Version: 6.00 Build 0)  -->
<svg version="1.1" id="Layer_1" xmlns="http://www.w3.org/2000/svg" xmlns:xlink="http://www.w3.org/1999/xlink" x="0px" y="0px"
	 viewBox="0 0 498.8 865" style="enable-background:new 0 0 498.8 865;" xml:space="preserve">
<style type="text/css">
	.st0{fill:#FAFBFB;}
	.st1{fill:#FFFFFF;}
	.st2{fill:#D6D6D6;}
	.st3{fill:#4B4B4B;}
	.st4{opacity:0.4;}
	.st5{fill:none;}
	.st6{fill:none;stroke:#C9C9C9;}
	.st7{font-family:'ArialMT';}
	.st8{font-size:11px;}
	.st9{fill:none;stroke:#D6D6D6;}
	.st10{fill:#F0F3F6;}
	.st11{fill:#E0E0E0;}
</style>
<g id="Phone" transform="translate(2096 93)">
	<g transform="matrix(1, 0, 0, 1, -2096, -93)">
		<path id="iphone-2" class="st0" d="M121.3,75h266c25.6,0,46.3,20.1,46.3,45v625c0,24.9-20.7,45-46.3,45h-266
			C95.7,790,75,769.9,75,745V120C75,95.2,95.7,75,121.3,75z"/>
	</g>
	<g id="screen" transform="translate(946.312 885.013)">
		<path class="st1" d="M-2648.5-207.7h-279.1c-2.8,0-5.4-0.5-7.9-1.6c-2.4-1-4.6-2.4-6.5-4.3c-1.9-1.8-3.3-3.9-4.4-6.3
			c-1.1-2.4-1.6-5-1.6-7.7v-635.2c0-2.7,0.5-5.3,1.6-7.7c1-2.4,2.5-4.5,4.4-6.3c1.9-1.8,4.1-3.3,6.5-4.3c2.5-1,5.2-1.6,7.9-1.6
			h279.1c2.8,0,5.4,0.5,7.9,1.6c2.4,1,4.6,2.4,6.5,4.3c1.9,1.8,3.3,3.9,4.4,6.3c1.1,2.4,1.6,5,1.6,7.7v635.2c0,2.7-0.5,5.3-1.6,7.7
			c-1,2.4-2.5,4.5-4.4,6.3c-1.9,1.8-4.1,3.3-6.5,4.3C-2643.1-208.2-2645.7-207.7-2648.5-207.7z"/>
		<path class="st2" d="M-2648.5-208.2c2.7,0,5.3-0.5,7.7-1.5c2.4-1,4.5-2.4,6.3-4.1c1.8-1.8,3.3-3.8,4.3-6.2c1-2.4,1.6-4.9,1.6-7.5
			v-635.2c0-2.6-0.5-5.1-1.6-7.5c-1-2.3-2.4-4.4-4.3-6.2c-1.8-1.8-4-3.2-6.3-4.1c-2.5-1-5.1-1.5-7.7-1.5h-279.1
			c-2.7,0-5.3,0.5-7.7,1.5c-2.4,1-4.5,2.4-6.3,4.1c-1.8,1.8-3.3,3.8-4.3,6.2c-1,2.4-1.6,4.9-1.6,7.5v635.2c0,2.6,0.5,5.1,1.6,7.5
			c1,2.3,2.4,4.4,4.3,6.2c1.8,1.8,4,3.2,6.3,4.1c2.5,1,5.1,1.5,7.7,1.5H-2648.5 M-2648.5-207.2h-279.1c-11.6,0-20.9-9.1-20.9-20.4
			v-635.2c0-11.2,9.4-20.4,20.9-20.4h279.1c11.6,0,20.9,9.1,20.9,20.4v635.2C-2627.6-216.3-2636.9-207.2-2648.5-207.2z"/>
	</g>
	<g id="status_bar" transform="translate(974.612 895.212)">
		<g id="battery" transform="translate(253.038 1.038)">
			<path id="Tip" class="st3" d="M-2924-880.5c0.9,0.2,1.5,1.1,1.2,2c-0.2,0.6-0.6,1-1.2,1.2V-880.5z"/>
			<path id="Fill" class="st3" d="M-2938.3-881.4h11.1c0.6,0,1,0.4,1,1v3c0,0.6-0.5,1-1,1h-11.1c-0.6,0-1-0.4-1-1v-3
				C-2939.3-880.9-2938.8-881.4-2938.3-881.4z"/>
			<g id="Outline" transform="translate(0 0)" class="st4">
				<path class="st5" d="M-2938-883h10.6c1.4,0,2.6,1.1,2.6,2.5v3.3c0,1.4-1.2,2.5-2.6,2.5h-10.6c-1.4,0-2.6-1.1-2.6-2.5v-3.3
					C-2940.6-881.9-2939.4-883-2938-883z"/>
				<path class="st6" d="M-2938-882.5h10.6c1.1,0,2.1,0.9,2.1,2v3.3c0,1.1-0.9,2-2.1,2h-10.6c-1.1,0-2.1-0.9-2.1-2v-3.3
					C-2940-881.6-2939.1-882.5-2938-882.5z"/>
			</g>
		</g>
		<path id="radian" class="st3" d="M-2711.1-874.7v-6.2c0-0.6,0.5-1,1.1-1c0.6,0,1.1,0.5,1.1,1v6.2c0,0.6-0.5,1-1.1,1
			C-2710.6-873.7-2711.1-874.1-2711.1-874.7C-2711.1-874.7-2711.1-874.7-2711.1-874.7z M-2714.9-874.7v-4.2c0-0.6,0.5-1,1.1-1
			c0.6,0,1.1,0.5,1.1,1v4.2c0,0.6-0.5,1-1.1,1C-2714.4-873.7-2714.9-874.1-2714.9-874.7z M-2718.8-874.7v-2.5c0-0.6,0.5-1,1.1-1
			s1.1,0.5,1.1,1v2.5c0,0.6-0.5,1-1.1,1S-2718.8-874.1-2718.8-874.7z M-2722.6-874.7v-0.8c0-0.6,0.5-1,1.1-1s1.1,0.5,1.1,1v0.8
			c0,0.6-0.5,1-1.1,1S-2722.6-874.1-2722.6-874.7z"/>
		<text transform="matrix(1.0282 0 0 1 -2947.6877 -875.0372)" class="st3 st7 st8">9:41</text>
		<path id="wifi" class="st3" d="M-2699-874c-0.4-0.4-0.4-1.1,0-1.5c0,0,0,0,0,0c0.4-0.4,1.1-0.4,1.5,0c0.4,0.4,0.4,1.1,0,1.5
			c0,0,0,0,0,0C-2697.9-873.6-2698.6-873.6-2699-874z M-2696.7-876.1c-0.8-0.8-2.1-0.8-3,0c-0.3,0.2-0.7,0.2-0.9,0
			c-0.2-0.2-0.3-0.6,0-0.8c0,0,0,0,0,0c1.3-1.3,3.4-1.3,4.8,0c0.2,0.2,0.3,0.6,0,0.9c0,0,0,0,0,0
			C-2696.1-875.9-2696.5-875.9-2696.7-876.1L-2696.7-876.1z M-2695.3-877.6c-1.7-1.6-4.3-1.6-5.9,0c-0.3,0.2-0.7,0.2-0.9,0
			c-0.2-0.2-0.3-0.6,0-0.9c0,0,0,0,0,0c2.2-2,5.6-2,7.8,0c0.2,0.2,0.3,0.6,0,0.9c0,0,0,0,0,0C-2694.6-877.3-2695-877.3-2695.3-877.6
			z M-2693.8-879c-2.5-2.4-6.5-2.4-8.9,0c-0.3,0.2-0.7,0.2-0.9,0c-0.2-0.2-0.3-0.6,0-0.9c0,0,0,0,0,0c1.4-1.4,3.4-2.1,5.4-2.1
			c2,0,3.9,0.8,5.4,2.1c0.2,0.2,0.3,0.6,0,0.9c0,0,0,0,0,0C-2693.1-878.8-2693.5-878.8-2693.8-879L-2693.8-879z"/>
	</g>
	<g id="camera" transform="translate(1014.149 885.013)">
		<g id="bg" transform="translate(0 0)">
			<path class="st0" d="M-2946.6-883h181.4l0,0l0,0c0,13.3-11.1,24.1-24.8,24.1l0,0h-131.8C-2935.5-858.9-2946.6-869.7-2946.6-883
				L-2946.6-883L-2946.6-883z"/>
			<path class="st9" d="M-2945.8-882.5h179.8c0.2,0,0.3,0.1,0.3,0.3c0,0,0,0,0,0l0,0c0,12.6-10.5,22.8-23.5,22.8h-133.4
				c-13,0-23.5-10.2-23.5-22.8l0,0C-2946.1-882.4-2945.9-882.5-2945.8-882.5z"/>
		</g>
		<g id="camera-2" transform="translate(119.028 4.994)">
			<ellipse class="st10" cx="-2938.5" cy="-878.5" rx="4.7" ry="4.6"/>
			<ellipse class="st9" cx="-2938.5" cy="-878.5" rx="4.2" ry="4.1"/>
		</g>
		<g id="volume" transform="translate(66.589 7.075)">
			<path class="st10" d="M-2942.1-883h39.8c1.4,0,2.6,1.1,2.6,2.5l0,0c0,1.4-1.1,2.5-2.6,2.5h-39.8c-1.4,0-2.6-1.1-2.6-2.5l0,0
				C-2944.7-881.9-2943.5-883-2942.1-883z"/>
			<path class="st9" d="M-2942.1-882.5h39.8c1.1,0,2.1,0.9,2.1,2l0,0c0,1.1-0.9,2-2.1,2h-39.8c-1.1,0-2.1-0.9-2.1-2l0,0
				C-2944.2-881.6-2943.3-882.5-2942.1-882.5z"/>
		</g>
	</g>
	<path id="home_indicator" class="st11" d="M-1896.5,664.5h110c0.9,0,1.7,0.7,1.7,1.7l0,0c0,0.9-0.8,1.7-1.7,1.7h-110
		c-0.9,0-1.7-0.7-1.7-1.7l0,0C-1898.2,665.3-1897.4,664.5-1896.5,664.5z"/>
	<path id="Rectangle_102" class="st0" d="M-1930.9,1.4h178.3c0.5,0,0.9,0.4,0.9,0.9l0,0c0,0.5-0.4,0.9-0.9,0.9h-178.3
		c-0.5,0-0.9-0.4-0.9-0.9l0,0C-1931.8,1.8-1931.4,1.4-1930.9,1.4z"/>
</g>
<g>
	<title>Asset 1</title>
	<g id="Layer_2_1_">
		<g id="Layer_1-2_1_">
			<g id="UKUltZ.tif_1_">
				
					<image style="overflow:visible;enable-background:new    ;" width="352" height="605" id="Layer_0_1_" xlink:href="49B1D330.png"  transform="matrix(0.8884 0 0 0.9588 100 141)">
				</image>
			</g>
		</g>
	</g>
</g>
</svg>
