<svg xmlns="http://www.w3.org/2000/svg" viewBox="2772 2869 18.098 18">
  <defs>
    <style>
      .cls-1 {
        fill: #a2a3a8;
      }
    </style>
  </defs>
  <path id="Facebook" class="cls-1" d="M368,159.016a.986.986,0,0,1-.984.984h-4.623v-6.984h2.361l.344-2.7h-2.7V148.59c0-.787.2-1.328,1.328-1.328h1.426V144.8a16.1,16.1,0,0,0-2.115-.1,3.282,3.282,0,0,0-3.492,3.59v2.016h-2.361v2.7h2.361V160h-8.656a.986.986,0,0,1-.984-.984V142.984a.986.986,0,0,1,.984-.984h16.082a.986.986,0,0,1,.984.984v16.033Z" transform="translate(2422.1 2727)"/>
</svg>
