<svg xmlns="http://www.w3.org/2000/svg" viewBox="2907 2869 18.049 18">
  <defs>
    <style>
      .cls-1 {
        fill: #a2a3a8;
      }
    </style>
  </defs>
  <path id="Instagram" class="cls-1" d="M1008.685,142.1H994.964a2.141,2.141,0,0,0-2.164,2.115v13.77a2.141,2.141,0,0,0,2.164,2.115h13.721a2.141,2.141,0,0,0,2.164-2.115v-13.77A2.208,2.208,0,0,0,1008.685,142.1Zm-2.951,2.852a.546.546,0,0,1,.541-.541h1.672a.546.546,0,0,1,.541.541v1.672a.546.546,0,0,1-.541.541h-1.672a.546.546,0,0,1-.541-.541Zm-3.935,2.754a3.443,3.443,0,1,1,0,6.885,3.443,3.443,0,0,1,0-6.885Zm7.328,10.18a.546.546,0,0,1-.541.541H995.062a.546.546,0,0,1-.541-.541v-8.459h2.262a3.537,3.537,0,0,0-.393,1.721,5.508,5.508,0,0,0,11.016,0,2.75,2.75,0,0,0-.443-1.721h2.262v8.459Z" transform="translate(1914.2 2726.9)"/>
</svg>
