<svg xmlns="http://www.w3.org/2000/svg" viewBox="0 0 888.69 156.89"><defs><style>.cls-1,.cls-2{fill:#f79432;}.cls-1{fill-rule:evenodd;}</style></defs><title>Asset 1</title><g id="Layer_2" data-name="Layer 2"><g id="Layer_1-2" data-name="Layer 1"><path class="cls-1" d="M86.1,88.44c0,8,0,16.34,0,24.53q0,15.68,0,31.33a2.71,2.71,0,0,0,0,.4c.06.42.24.53.66.44a8.33,8.33,0,0,1,1-.16,1.8,1.8,0,0,1,1.65,1.69c-.06,1.13,0,2.28,0,3.42a1.81,1.81,0,0,1-2.36,1.8c-.89-.22-.9-.21-.94.71a2.36,2.36,0,0,1-.57,1.57c-.29.32-.47.72-.74,1.06a6.36,6.36,0,0,1-2,1.42,2.67,2.67,0,0,1-1.26.23H68.21l-42,0-18.14,0a3.72,3.72,0,0,1-2.06-.6,6.69,6.69,0,0,1-2.17-2.13,2.7,2.7,0,0,1-.51-1.6,1.89,1.89,0,0,0,0-.41c-.06-.39-.21-.49-.61-.38-.11,0-.21.08-.32.1A1.82,1.82,0,0,1,0,149.91c0-1,0-2.1,0-3.15a1.81,1.81,0,0,1,2.4-1.82,2.67,2.67,0,0,1,.26.09c.36.1.52,0,.61-.33a3.08,3.08,0,0,0,0-.61l.06-44.56q0-18.27,0-36.55c.05-48.23.1,17.16,0-30.53a4.26,4.26,0,0,1,1.18-2.6,6.39,6.39,0,0,1,1.91-1.52,1.8,1.8,0,0,1,.76-.28,18.77,18.77,0,0,1,2-.11c2.44,0,4.88,0,7.32,0a1.7,1.7,0,0,0,1.7-1.74q0-10.1-.07-20.18c0-.71.07-1.41.12-2.12a1.39,1.39,0,0,1,.14-.52A6.38,6.38,0,0,1,21.66.22,4.42,4.42,0,0,1,23.34,0c4.47,0,8.94,0,13.41,0L63,0a14.72,14.72,0,0,1,1.49.12,1.15,1.15,0,0,1,.45.16,6.58,6.58,0,0,1,2.91,3,2.89,2.89,0,0,1,.29,1.18q0,9.48,0,19c0,2.15,0,4.29,0,6.44a1.85,1.85,0,0,1-3.52.88,2.09,2.09,0,0,1-.18-.85c0-3.2,0-6.39,0-9.59l0-14.78a1.64,1.64,0,0,0-1.71-1.72H48.81q-12.45,0-24.91,0a1.88,1.88,0,0,0-1.51.62A1.57,1.57,0,0,0,22,5.5c0,4.06,0,8.13,0,12.19,0,3.19,0,6.39,0,9.58a2.61,2.61,0,0,1-.55,1.65c-.3.37-.55.78-.84,1.16a5.67,5.67,0,0,1-1.87,1.35,2.83,2.83,0,0,1-1.32.29c-2.83,0-5.66,0-8.49,0a1.68,1.68,0,0,0-1.79,1.79q0,7.11,0,14.24l0,30.18q0,17.14,0,34.29l0,28.2c0,.46,0,.92,0,1.37a7.47,7.47,0,0,1-.18.92,4.57,4.57,0,0,0-.1.73q0,4.25,0,8.49c0,.73.07.8.84.8l13.27,0H33.48l10.06,0,13,0,12.72,0H82c.6,0,.67-.08.68-.68,0-1.8,0-3.6,0-5.4v-4.18c0-.16,0-.35,0-.46a2.66,2.66,0,0,1-.25-1.66q0-32.31,0-64.62c0-16.74,1-28.53.66-40.86.16.48,0,0-.42-1.81-.38-.4-1.39-1.36-2-1.35-2.19,0-4.38,0-6.57,0a4.08,4.08,0,0,1-2.9-1.17,14.88,14.88,0,0,1-1.58-1.87,1.58,1.58,0,0,1-.27-.7,14.73,14.73,0,0,1-.13-1.76q0-11.1,0-22.18A2.42,2.42,0,0,1,70,2.2a1.83,1.83,0,0,1,3,.9,3.65,3.65,0,0,1,.08.81q0,11.19,0,22.38A1.51,1.51,0,0,0,74.72,28c1.73,0,3.47,0,5.2,0,.8,0,1.59.06,2.39.12a1.92,1.92,0,0,1,.77.24,7.15,7.15,0,0,1,2.86,3,2.64,2.64,0,0,1,.25,1.18c.12,54.31-.06,67,0,14.79,0,11.47,0,23,0,34.47,0,2.21,0,4.68,0,6.68Z"/><path class="cls-1" d="M44.89,78.44c-10.26,0-20.43,0-30.7,0l-3.62,0a1.89,1.89,0,0,1-1.92-2.58,1.58,1.58,0,0,1,1-1c.42-.16,0-.6,0-1.06,0-6.75.52-12,.53-18.58,0-2.08-.52-4.1-.53-6.92,0-1.12.73-1.61,1.88-1.62q3.29,0,6.57,0l18.83,0,16.63,0,23.4,0h1.58c1,0,1.26.31,1.26,1.27q0,12.66,0,25.32a3.37,3.37,0,0,1,0,.55A.94.94,0,0,0,80.43,75a1.81,1.81,0,0,1,.95,2.2,2,2,0,0,1-1.89,1.26c-11.5,0-23,0-34.49,0Zm-.2-29.09H42.55l-10.37,0-14,0H13.91c-.6,0-.27.24-.29.84,0,.84-.37,0-.37.11q0,3.69,0,7.39,0,7.27,0,14.57c0,.82,0,1.64,0,2.46,0,.47.74.6.83.6H28.5l8.89,0H49l10.33,0H69.82c2.05,0,5.06-.15,7.11-.16.56,0-.55.48-.54-.06,0-.75.9-1.9.9-2.65,0-3.88-.7-7.74-.7-11.62s.52-7.66,0-11c0-.62.28-.44-.5-.44H44.69Z"/><path class="cls-1" d="M44.69,109.83c-8,0-16.17,0-24.34,0H10.51a2.18,2.18,0,0,1-.95-.18,1.83,1.83,0,0,1-.11-3.16,1.81,1.81,0,0,0,1.12-1.65c0-8.45-.65-15.23-.88-22.87,0-1,1.07-2.78,2-2.78l20.12,0,20.12,0,21.07,0c1.85,0,3.7,0,5.55,0,1,0,1.37.38,1.37,1.36,0,4.54,0,13.13,0,25.09,0,.51.06.44.56.69a1.85,1.85,0,0,1,.17,3.24,2,2,0,0,1-1,.25c-4.06,0-8.28,0-12.34,0H44.69Zm0-2.92v0H48.5L59,107H69.38c2.21,0,4.44,0,6.65,0-.06,0,1.2,0,1-.83,0-2.28,1.41-5.54.3-7,.75-5.3-.83-11-.83-16.89.59-.26.23-.1-.41-.1-2.1,0-4.2,0-6.3,0H59.49l-12.93,0H21c-2.21,0-4.42,0-6.64,0-1.08,0-1.1,0-1.1,1.08V90l0,16.21c0,.62.09.71.72.7h5.33l13,0Z"/><path class="cls-1" d="M44.69,142.44h-22l-9,0H9.94a1.27,1.27,0,0,1-1.35-1.09c-.18-1.06-.05-1.75,1-2.26a.8.8,0,0,0,.56-.82c0-3.38,0-6.75,0-10.13,0-5.27-.49-10.15-.49-15.42,0-1.19.72-1.8,2-1.8H28.82l40.1,0h9.65c1,.07,1.22.29,1.22,1.3q0,13-.05,25.93a.91.91,0,0,0,.56,1,1.8,1.8,0,0,1,1,2.15,1.46,1.46,0,0,1-1.43,1.2H69.31c-22.29,0,11.83,0-10.26,0H44.69Zm1-2v-.13H58.32l15.55,0h2.95c.47,0,0,.47,0,0,0-.09.43-.92.43-1,0-1.35-.5-6.33-.5-10.8,0-3.25,0-9.6,0-14.47a.5.5,0,0,0-.48-.56H56.21l-10.47,0H26.17l-6.29,0c-1.82,0-3.64,0-5.47,0-.69,0-.74.06-.75.73,0,3.65,0,7.29,0,10.94q0,7.23,0,14.44c0,.69,0,.83.73.83,5.09,0,10.17.09,15.26.09Z"/><path class="cls-1" d="M64.88,37l-14,0c-4.24,0-8.49,0-12.73,0L21.7,37H12.6c-.44,0-.51.09-.51.53,0,.71,0,1.42,0,2.13,0,1.75,0,3.51,0,5.26,0,.63-.08.71-.71.71-.41,0-.82,0-1.24,0a.8.8,0,0,1-.9-.74,2.46,2.46,0,0,1,0-.54c0-2.74,0-5.48,0-8.22a4.51,4.51,0,0,1,.15-1.21,1.65,1.65,0,0,1,1.37-1.19,4.49,4.49,0,0,1,.89-.16c10.65,0,21.31-.08,32-.08h2.1"/><path class="cls-1" d="M60.69,11.09s-1.28,0-2,0A1.79,1.79,0,0,1,57,9.63a1.79,1.79,0,0,1,1-2.06,3.43,3.43,0,0,1,1.27-.26c1.19,0,2.38,0,3.57,0,.95,0,1.27.36,1.27,1.3,0,.5,0,1,0,1.5-.06.79-.43,1-1.21,1Z"/><polygon class="cls-1" points="13.69 82.08 13.69 106.88 12.69 106.94 12.69 82.14 13.69 82.08"/><polygon class="cls-1" points="10.11 81.44 9.69 106.56 11.43 105 10.91 81.44 10.11 81.44"/><polygon class="cls-1" points="76.69 81.98 76.69 107.25 78.08 106.63 78.44 81.71 76.69 81.98"/><polyline class="cls-1" points="78.5 49.14 78.32 75.44 76.52 75.44 76.46 49.06 76.46 49.06"/><polygon class="cls-1" points="13.69 48.44 13.69 76.63 10.89 75.99 12.24 48.44 13.69 48.44"/><polyline class="cls-2" points="9.69 36.44 9.69 45.44 11.69 45.44 11.69 38.44"/><polygon class="cls-2" points="76.69 113.48 76.69 140.33 76.69 141.44 78.69 141.44 78.69 112.83 76.69 113.48"/><polyline class="cls-1" points="13.69 139.44 76.69 139.44 76.69 141.44 13.69 141.67 13.69 140.44"/><polyline class="cls-1" points="9.69 114.44 9.69 139.44 11.69 139.44 11.69 113.44 9.19 114.58"/><polygon class="cls-2" points="75.69 48.44 75.69 76.44 78.69 75.44 78.69 60.44 77.84 47.61 75.69 48.44"/><polyline class="cls-1" points="9.69 50.44 9.69 76.44 11.69 76.17 11.43 49.57"/><polyline class="cls-1" points="9.69 81.44 9.69 106.44 11.69 106.56 11.69 81.44 9.69 81.44"/><path class="cls-1" d="M75.69,81.44v27a1.41,1.41,0,0,0,1.5,0c.75-.5,1.5-27,1.5-27Z"/><polygon class="cls-1" points="75.69 113.44 75.69 139.44 77.69 139.44 78.69 112.83 75.69 113.44"/><line class="cls-2" x1="41.69" y1="33.44" x2="80.69" y2="33.44"/><polyline class="cls-2" points="43.69 33.44 80.69 33.44 80.69 45.44 78.69 45.44 78.69 37.44 78.69 36.44"/><path class="cls-2" d="M42.69,33.44H78.07s2.62-.5,2.62,3.88v8.12H77.56L77.69,37l-17.18-.12"/><polygon class="cls-1" points="82.69 33.44 82.69 67.44 84.69 70.19 84.69 33.44 82.69 33.44"/><path class="cls-1" d="M80.19,31.79s2.5-.22,2.5,3.78,1.62-2.43,1.62-2.43l-2.37-2Z"/><path class="cls-1" d="M79.69,28a8.91,8.91,0,0,1,1-.05c1.82,0,5.49.63,5.5,5.19,0,6-1.88,1.67-1.88,1.67"/><path class="cls-1" d="M9.69,27.94s-6.68-1-6.25,5.92,3.11-.42,3.11-.42Z"/><path class="cls-1" d="M22,25.53s.92,6.19-5.13,6.19S19.11,27,19.11,27Z"/><path class="cls-1" d="M69.3,27.11s.3,4.71,4.85,4.7,1-1.95,1-1.95l-3.66-3.75Z"/><polyline class="cls-1" points="9.69 36.44 9.69 45.44 9.69 36.44 10.89 37.01"/><polygon class="cls-1" points="9.25 37.44 9.12 45.44 11.69 45.44 10.89 37.44 9.25 37.44"/><polyline class="cls-2" points="82.4 139.44 82.03 153.36 84.31 151.44 83.5 136.94 82.4 137.44"/><line class="cls-2" x1="5.69" y1="152.57" x2="6.69" y2="152.87"/><polyline class="cls-2" points="6.69 152.44 6.69 153.44 7.69 153.44 5.69 150.75"/><polyline class="cls-2" points="7.01 138.28 7.28 154.44 6.72 153.79 5.28 147.05 5.69 137.91"/></g><g id="Layer_2-2" data-name="Layer 2"><path class="cls-2" d="M185.62,66.86a1.7,1.7,0,0,1-1.58,1,3.48,3.48,0,0,1-2-1.12,27.26,27.26,0,0,0-3.38-2.5,26.77,26.77,0,0,0-5.32-2.52,26.67,26.67,0,0,0-16.13.18,17.32,17.32,0,0,0-6,3.65,15.54,15.54,0,0,0-3.65,5.36,16.72,16.72,0,0,0-1.24,6.39,13,13,0,0,0,1.85,7.24,16.73,16.73,0,0,0,4.9,4.87A31.5,31.5,0,0,0,160,92.82q3.85,1.37,7.94,2.71t7.94,3a28.22,28.22,0,0,1,6.91,4,18.58,18.58,0,0,1,4.9,6,19,19,0,0,1,1.86,8.86,27.81,27.81,0,0,1-1.86,10.19,23.67,23.67,0,0,1-5.39,8.31,25.29,25.29,0,0,1-8.64,5.57,31.32,31.32,0,0,1-11.68,2,33,33,0,0,1-14.67-3,34.33,34.33,0,0,1-10.77-8.24l1.7-2.68a2.14,2.14,0,0,1,1.7-.91,2.38,2.38,0,0,1,1.4.73c.57.48,1.26,1.08,2.07,1.79s1.79,1.48,2.93,2.32a24,24,0,0,0,3.95,2.31,27.62,27.62,0,0,0,5.17,1.79,27.32,27.32,0,0,0,6.64.73,25.08,25.08,0,0,0,9.13-1.55,19.73,19.73,0,0,0,6.78-4.23,17.74,17.74,0,0,0,4.23-6.36,21,21,0,0,0,1.46-7.88,14,14,0,0,0-1.85-7.52,16.11,16.11,0,0,0-4.9-4.93,31.38,31.38,0,0,0-6.91-3.31c-2.58-.9-5.22-1.77-7.94-2.62s-5.37-1.81-7.94-2.86a27.61,27.61,0,0,1-6.91-4,18.47,18.47,0,0,1-4.9-6.15,20.32,20.32,0,0,1-1.86-9.22,21.76,21.76,0,0,1,1.65-8.34,20.72,20.72,0,0,1,4.8-7.09,23.85,23.85,0,0,1,7.82-4.93,28.7,28.7,0,0,1,10.62-1.85,32.11,32.11,0,0,1,12,2.13,28.82,28.82,0,0,1,9.71,6.51Z"/><path class="cls-2" d="M207.69,109.44V111a41,41,0,0,0,1.57,12,24.38,24.38,0,0,0,4.49,8.67,18.5,18.5,0,0,0,7.05,5.26,23.29,23.29,0,0,0,9.25,1.77,27.62,27.62,0,0,0,7.91-1,29,29,0,0,0,5.63-2.26,30.46,30.46,0,0,0,3.62-2.25,4.1,4.1,0,0,1,1.95-1,1.41,1.41,0,0,1,1.22.6l1.58,1.95a16.3,16.3,0,0,1-3.86,3.41,27.45,27.45,0,0,1-5.36,2.71,39.59,39.59,0,0,1-6.33,1.8,35.27,35.27,0,0,1-6.79.66,28.84,28.84,0,0,1-11.32-2.16,24.09,24.09,0,0,1-8.76-6.29,28.78,28.78,0,0,1-5.63-10.14,43.71,43.71,0,0,1-2-13.72,37.31,37.31,0,0,1,1.86-12,27.58,27.58,0,0,1,5.35-9.5,24.44,24.44,0,0,1,8.59-6.24A28.17,28.17,0,0,1,229.26,81a25.27,25.27,0,0,1,9.49,1.76,21.61,21.61,0,0,1,7.61,5.15,24.2,24.2,0,0,1,5.08,8.31,31.91,31.91,0,0,1,1.86,11.32,2.49,2.49,0,0,1-.37,1.63c-.24.32-.65.29-1.21.29Zm40.38-3a24.08,24.08,0,0,0-1.37-8.89,19.12,19.12,0,0,0-3.87-6.63,17.1,17.1,0,0,0-5.93-4.15,19.65,19.65,0,0,0-7.58-1.45,22.91,22.91,0,0,0-8.4,1.45A18.4,18.4,0,0,0,214.5,91a21.45,21.45,0,0,0-4.35,6.73,33,33,0,0,0-2.19,8.74Z"/><path class="cls-2" d="M267.36,90.54a35.18,35.18,0,0,1,10-7.19,27.86,27.86,0,0,1,11.87-2.43,21.77,21.77,0,0,1,8.52,1.55,15.86,15.86,0,0,1,6,4.44,19.37,19.37,0,0,1,3.66,7,32.25,32.25,0,0,1,1.25,9.16v39.37h-2.38a2,2,0,0,1-2.25-1.67l-.85-7.77a64.69,64.69,0,0,1-5,4.39,29.21,29.21,0,0,1-5.14,3.29,26.07,26.07,0,0,1-5.78,2.08,30.16,30.16,0,0,1-6.82.73,20,20,0,0,1-6-.92,15,15,0,0,1-5.2-2.8,13.54,13.54,0,0,1-3.66-4.83,16.82,16.82,0,0,1-1.37-7.09,12.57,12.57,0,0,1,2.2-7.13,18,18,0,0,1,6.87-5.72,44.65,44.65,0,0,1,11.89-3.89,101.08,101.08,0,0,1,17.48-1.71v-6.33c0-5.6-1.07-9.91-3.48-12.93s-5.93-4.53-10.68-4.53a20.13,20.13,0,0,0-7.42,1.21,26.9,26.9,0,0,0-5.19,2.68,32,32,0,0,0-3.46,2.68,3.76,3.76,0,0,1-2.25,1.22,1.78,1.78,0,0,1-1.09-.31,2.65,2.65,0,0,1-.73-.79Zm35.33,22.7A124.66,124.66,0,0,0,288,114.61a42.17,42.17,0,0,0-10.22,2.89,15.27,15.27,0,0,0-6,4.35,9.13,9.13,0,0,0-1.93,5.75,12.7,12.7,0,0,0,1,5.27,10.22,10.22,0,0,0,2.68,3.65,10.85,10.85,0,0,0,3.87,2.1,15.39,15.39,0,0,0,4.56.67,26.33,26.33,0,0,0,6.49-.76,24.3,24.3,0,0,0,5.47-2.13,25.82,25.82,0,0,0,4.59-3.26,24.56,24.56,0,0,0,4.18-4.08Z"/><path class="cls-2" d="M334.69,54.44v88h-6v-88Z"/><path class="cls-2" d="M412.69,107v35.41h-6V107l-32.1-50.59h5.48a2.34,2.34,0,0,1,1.4.37,2.94,2.94,0,0,1,.91,1.12L407,97.48c.53.93,1,1.83,1.46,2.71a26.36,26.36,0,0,1,1.16,2.58c.32-.85.69-1.71,1.1-2.59s.87-1.77,1.4-2.71l24.64-39.56a2.8,2.8,0,0,1,.89-1.07,2.34,2.34,0,0,1,1.43-.4h5.47Z"/><path class="cls-2" d="M466.92,81a29.13,29.13,0,0,1,11.65,2.22,23.8,23.8,0,0,1,8.68,6.3,28,28,0,0,1,5.38,9.83,45.39,45.39,0,0,1,0,25.72,28.08,28.08,0,0,1-5.38,9.8,23.59,23.59,0,0,1-8.68,6.26,32.11,32.11,0,0,1-23.31,0,23.74,23.74,0,0,1-8.7-6.26,27.83,27.83,0,0,1-5.42-9.8,45.62,45.62,0,0,1,0-25.72,27.8,27.8,0,0,1,5.42-9.83,24,24,0,0,1,8.7-6.3A29.18,29.18,0,0,1,466.92,81Zm0,57.76a22.46,22.46,0,0,0,9.46-1.86,17.89,17.89,0,0,0,6.76-5.32,23.66,23.66,0,0,0,4.05-8.37,45.57,45.57,0,0,0,0-21.94,24,24,0,0,0-4.05-8.43,18.17,18.17,0,0,0-6.76-5.39,24.65,24.65,0,0,0-18.93,0,18.13,18.13,0,0,0-6.75,5.39,24,24,0,0,0-4.08,8.43,44.6,44.6,0,0,0,0,21.94,23.7,23.7,0,0,0,4.08,8.37,17.86,17.86,0,0,0,6.75,5.32A22.51,22.51,0,0,0,466.92,138.74Z"/><path class="cls-2" d="M557.69,82.44v60h-3.07a1.6,1.6,0,0,1-1.76-1.54l-.55-9a34.36,34.36,0,0,1-9.71,8.4,24.17,24.17,0,0,1-12.26,3.17,22.64,22.64,0,0,1-8.83-1.58,16.13,16.13,0,0,1-6.27-4.56,20.66,20.66,0,0,1-4-7.18,32.42,32.42,0,0,1-1.53-9.5V82.44h6v38.22c0,5.69,1.47,10.14,4.07,13.36s6.64,4.84,12,4.84a21.09,21.09,0,0,0,10.94-3c3.42-2,7-4.8,9-8.37v-45Z"/><path class="cls-2" d="M583.28,96.56a38.23,38.23,0,0,1,3.2-6.6,21,21,0,0,1,4.14-4.9A17.06,17.06,0,0,1,595.85,82a18.48,18.48,0,0,1,6.42-1.06,20.92,20.92,0,0,1,3.72.33,9.51,9.51,0,0,1,3.22,1.19l-.48,4a1.18,1.18,0,0,1-1.16,1,9.07,9.07,0,0,1-2.22-.42,14.53,14.53,0,0,0-3.93-.43,17.21,17.21,0,0,0-6.24,1.06,14.71,14.71,0,0,0-4.87,3.2,20.59,20.59,0,0,0-3.72,5.26,68,68,0,0,0-2.9,7.22v39.12h-6v-60h3.16c.69,0,1.18-.1,1.46.18a2,2,0,0,1,.55,1.34Z"/><path class="cls-2" d="M738.69,56.44v86h-5V69.11a32.73,32.73,0,0,1,.14-3.35l-33.92,60.15a2.61,2.61,0,0,1-2.45,1.53h-1a2.6,2.6,0,0,1-2.43-1.53L659.37,65.62a34.81,34.81,0,0,1,.32,3.49v73.33h-6v-86h4.57a4,4,0,0,1,1.34.16,2.15,2.15,0,0,1,1,1l34.75,59.88a25.1,25.1,0,0,1,1.58,3.65c.24-.65.51-1.29.79-1.91s.59-1.23.91-1.8l33.78-59.83a2.07,2.07,0,0,1,1-.95,4.32,4.32,0,0,1,1.37-.16Z"/><path class="cls-2" d="M761.69,109.44V111a41.14,41.14,0,0,0,1.66,12,24.62,24.62,0,0,0,4.55,8.67,18.53,18.53,0,0,0,7.08,5.26,23.31,23.31,0,0,0,9.26,1.77,27.67,27.67,0,0,0,7.91-1,29.09,29.09,0,0,0,5.64-2.26,31.31,31.31,0,0,0,3.62-2.25,4.06,4.06,0,0,1,2-1,1.39,1.39,0,0,1,1.21.6l1.59,1.95a16.56,16.56,0,0,1-3.87,3.41,27.36,27.36,0,0,1-5.35,2.71,39.59,39.59,0,0,1-6.33,1.8,35.35,35.35,0,0,1-6.79.66,28.8,28.8,0,0,1-11.32-2.16,24,24,0,0,1-8.76-6.29,28.62,28.62,0,0,1-5.63-10.14,43.71,43.71,0,0,1-2-13.72A37.59,37.59,0,0,1,758,99a27.6,27.6,0,0,1,5.36-9.5,24.31,24.31,0,0,1,8.58-6.24A28.21,28.21,0,0,1,783.45,81a25.32,25.32,0,0,1,9.5,1.76,21.61,21.61,0,0,1,7.61,5.15,24.2,24.2,0,0,1,5.08,8.31,31.91,31.91,0,0,1,1.86,11.32,2.55,2.55,0,0,1-.37,1.63c-.24.32-.65.29-1.22.29Zm40.57-3a24.08,24.08,0,0,0-1.37-8.89A18.94,18.94,0,0,0,797,90.92a17.23,17.23,0,0,0-5.94-4.15,19.56,19.56,0,0,0-7.57-1.45,22.84,22.84,0,0,0-8.4,1.45A18.31,18.31,0,0,0,768.7,91a21.45,21.45,0,0,0-4.35,6.73,33.35,33.35,0,0,0-2.2,8.74Z"/><path class="cls-2" d="M821.55,90.54a35.36,35.36,0,0,1,10-7.19,27.84,27.84,0,0,1,11.86-2.43,21.7,21.7,0,0,1,8.52,1.55A15.82,15.82,0,0,1,858,86.91a19.37,19.37,0,0,1,3.56,7,32.36,32.36,0,0,1,1.15,9.16v39.37h-2.18a2.07,2.07,0,0,1-2.26-1.67L857.4,133a62.77,62.77,0,0,1-5,4.39,29.58,29.58,0,0,1-5.14,3.29,26.26,26.26,0,0,1-5.78,2.08,30.16,30.16,0,0,1-6.82.73,20,20,0,0,1-6-.92,15,15,0,0,1-5.21-2.8,13.52,13.52,0,0,1-3.65-4.83,16.82,16.82,0,0,1-1.37-7.09,12.63,12.63,0,0,1,2.19-7.13,18,18,0,0,1,6.88-5.72,43.72,43.72,0,0,1,11.79-3.89,111.09,111.09,0,0,1,17.38-1.71v-6.33c0-5.6-1-9.91-3.39-12.93s-5.87-4.53-10.62-4.53a20,20,0,0,0-7.4,1.21,26.69,26.69,0,0,0-5.17,2.68,32,32,0,0,0-3.46,2.68,3.74,3.74,0,0,1-2.24,1.22,1.76,1.76,0,0,1-1.09-.31,2.53,2.53,0,0,1-.73-.79Zm35.14,22.7A123.06,123.06,0,0,0,842,114.61a41.62,41.62,0,0,0-10.16,2.89,15.19,15.19,0,0,0-5.94,4.35A9.12,9.12,0,0,0,824,127.6a12.7,12.7,0,0,0,1,5.27,10.25,10.25,0,0,0,2.69,3.65,10.73,10.73,0,0,0,3.86,2.1,15.46,15.46,0,0,0,4.57.67,26.3,26.3,0,0,0,6.48-.76,24.19,24.19,0,0,0,5.48-2.13,25.83,25.83,0,0,0,4.49-3.26,23.85,23.85,0,0,0,4.08-4.08Z"/><path class="cls-2" d="M888.69,54.44v88h-6v-88Z"/><polygon class="cls-2" points="15.69 51.44 73.69 51.44 73.69 72.44 73.69 73.44 15.69 73.44 15.69 51.44"/><polygon class="cls-2" points="15.69 84.44 73.69 84.44 73.69 104.44 16.69 104.44 15.69 104.44 15.69 84.44"/><rect class="cls-2" x="15.69" y="115.44" width="58" height="22"/></g></g></svg>