<svg xmlns="http://www.w3.org/2000/svg" xmlns:xlink="http://www.w3.org/1999/xlink" viewBox="2949 883.037 498.76 865">
  <defs>
    <style>
      .cls-1, .cls-7 {
        fill: #fafbfb;
      }

      .cls-2 {
        fill: #fff;
      }

      .cls-3, .cls-4, .cls-6 {
        fill: #4b4b4b;
      }

      .cls-3 {
        fill-rule: evenodd;
      }

      .cls-12, .cls-5 {
        fill: none;
      }

      .cls-5 {
        stroke: #c9c9c9;
        opacity: 0.4;
      }

      .cls-6 {
        font-size: 11px;
        font-family: Helvetica;
      }

      .cls-7, .cls-8 {
        stroke: #d6d6d6;
      }

      .cls-8 {
        fill: #f0f3f6;
      }

      .cls-9 {
        fill: #e0e0e0;
      }

      .cls-10, .cls-11 {
        stroke: none;
      }

      .cls-11 {
        fill: #d6d6d6;
      }

      .cls-13 {
        filter: url(#iphone);
      }
    </style>
    <filter id="iphone" x="2949" y="883.037" width="498.76" height="865" filterUnits="userSpaceOnUse">
      <feOffset input="SourceAlpha"/>
      <feGaussianBlur stdDeviation="25" result="blur"/>
      <feFlood flood-opacity="0.149"/>
      <feComposite operator="in" in2="blur"/>
      <feComposite in="SourceGraphic"/>
    </filter>
  </defs>
  <g id="Phone" transform="translate(2096 93)">
    <g class="cls-13" transform="matrix(1, 0, 0, 1, -2096, -93)">
      <rect id="iphone-2" data-name="iphone" class="cls-1" width="348.76" height="715" rx="45" transform="translate(3024 958.04)"/>
    </g>
    <g id="screen" class="cls-2" transform="translate(946.312 885.013)">
      <path class="cls-10" d="M 291.7825012207031 675.3787841796875 L 20.35365295410156 675.3787841796875 C 17.67323684692383 675.3787841796875 15.0732364654541 674.85400390625 12.62590312957764 673.8187866210938 C 10.2617359161377 672.8189086914062 8.138485908508301 671.3873291015625 6.314986228942871 669.5637817382812 C 4.491486072540283 667.7402954101562 3.059902906417847 665.6170654296875 2.059986114501953 663.2528686523438 C 1.024819493293762 660.8055419921875 0.4999861121177673 658.20556640625 0.4999861121177673 655.5250854492188 L 0.4999861121177673 20.35364151000977 C 0.4999861121177673 17.67322540283203 1.024819493293762 15.0732250213623 2.059986114501953 12.62589168548584 C 3.059902906417847 10.26172542572021 4.491486072540283 8.13847541809082 6.314986228942871 6.314975261688232 C 8.138485908508301 4.491475582122803 10.2617359161377 3.059892177581787 12.62590312957764 2.059975385665894 C 15.0732364654541 1.024808764457703 17.67323684692383 0.4999754130840302 20.35365295410156 0.4999754130840302 L 291.7825012207031 0.4999754130840302 C 294.4629821777344 0.4999754130840302 297.06298828125 1.024808764457703 299.5103149414062 2.059975385665894 C 301.8743896484375 3.059892177581787 303.9976501464844 4.491475582122803 305.8211669921875 6.314975261688232 C 307.6446533203125 8.13847541809082 309.0762329101562 10.26172542572021 310.0761413574219 12.62589168548584 C 311.111328125 15.0732250213623 311.6361389160156 17.67322540283203 311.6361389160156 20.35364151000977 L 311.6361389160156 655.5250854492188 C 311.6361389160156 658.20556640625 311.111328125 660.8055419921875 310.0761413574219 663.2528686523438 C 309.0762329101562 665.6170654296875 307.6446533203125 667.7402954101562 305.8211669921875 669.5637817382812 C 303.9976501464844 671.3873291015625 301.8743896484375 672.8189086914062 299.5103149414062 673.8187866210938 C 297.06298828125 674.85400390625 294.4629821777344 675.3787841796875 291.7825012207031 675.3787841796875 Z"/>
      <path class="cls-11" d="M 291.7825012207031 674.8787841796875 C 294.3956604003906 674.8787841796875 296.9301452636719 674.3672485351562 299.3155822753906 673.3583374023438 C 301.6200561523438 672.3836669921875 303.6899108886719 670.9879760742188 305.4676513671875 669.210205078125 C 307.2453308105469 667.4325561523438 308.6409912109375 665.3626708984375 309.6156616210938 663.0581665039062 C 310.6245727539062 660.6727294921875 311.1361389160156 658.1382446289062 311.1361389160156 655.5250854492188 L 311.1361389160156 20.35364151000977 C 311.1361389160156 17.74047470092773 310.6245727539062 15.20597553253174 309.6156616210938 12.82064247131348 C 308.6409912109375 10.51614189147949 307.2453308105469 8.446309089660645 305.4676513671875 6.668558597564697 C 303.6899108886719 4.890808582305908 301.6200561523438 3.495225429534912 299.3154907226562 2.520475387573242 C 296.9301452636719 1.511558771133423 294.3956604003906 0.9999754428863525 291.7825012207031 0.9999754428863525 L 20.35365295410156 0.9999754428863525 C 17.74048614501953 0.9999754428863525 15.20598602294922 1.511558771133423 12.82065296173096 2.520475387573242 C 10.51615238189697 3.495225429534912 8.446319580078125 4.890808582305908 6.668569564819336 6.668558597564697 C 4.890819549560547 8.446309089660645 3.495236158370972 10.51614189147949 2.520486116409302 12.82064247131348 C 1.511569499969482 15.20597553253174 0.9999861121177673 17.74047470092773 0.9999861121177673 20.35364151000977 L 0.9999861121177673 655.5250854492188 C 0.9999861121177673 658.1382446289062 1.511569499969482 660.6727294921875 2.520486116409302 663.0581665039062 C 3.495236158370972 665.3626708984375 4.890819549560547 667.4325561523438 6.668569564819336 669.210205078125 C 8.446319580078125 670.9879760742188 10.51615238189697 672.383544921875 12.82065296173096 673.3583374023438 C 15.20598602294922 674.3672485351562 17.74048614501953 674.8787841796875 20.35365295410156 674.8787841796875 L 291.7825012207031 674.8787841796875 M 291.7825012207031 675.8787841796875 L 20.35365295410156 675.8787841796875 C 9.112652778625488 675.8787841796875 -1.387532574881334e-05 666.7662353515625 -1.387532574881334e-05 655.5250854492188 L -1.387532574881334e-05 20.35364151000977 C -1.387532574881334e-05 9.112642288208008 9.112652778625488 -2.457682239764836e-05 20.35365295410156 -2.457682239764836e-05 L 291.7825012207031 -2.457682239764836e-05 C 303.0235595703125 -2.457682239764836e-05 312.1361389160156 9.112642288208008 312.1361389160156 20.35364151000977 L 312.1361389160156 655.5250854492188 C 312.1361389160156 666.7662353515625 303.0235595703125 675.8787841796875 291.7825012207031 675.8787841796875 Z"/>
    </g>
    <g id="status_bar" data-name="status bar" transform="translate(974.612 895.212)">
      <g id="battery" transform="translate(253.038 1.038)">
        <path id="Tip" class="cls-3" d="M23,3.5a1.653,1.653,0,0,1,0,3.2Z" transform="translate(-6.889 -1.003)"/>
        <rect id="Fill" class="cls-4" width="12.806" height="4.994" rx="1" transform="translate(1.239 1.665)"/>
        <g id="Outline" class="cls-5" transform="translate(0 0)">
          <rect class="cls-10" width="15.285" height="8.324" rx="2.5"/>
          <rect class="cls-12" x="0.5" y="0.5" width="14.285" height="7.324" rx="2"/>
        </g>
      </g>
      <path id="radian" class="cls-4" d="M11.237,7.283V1.04a1.041,1.041,0,0,1,2.082,0V7.283a1.041,1.041,0,1,1-2.082,0Zm-3.745,0V3.121a1.04,1.04,0,1,1,2.081,0V7.283a1.04,1.04,0,1,1-2.081,0Zm-3.746,0v-2.5a1.04,1.04,0,0,1,2.081,0v2.5a1.04,1.04,0,1,1-2.081,0ZM0,7.283V6.451a1.04,1.04,0,0,1,2.081,0v.832A1.04,1.04,0,1,1,0,7.283Z" transform="translate(218.911 1.038)"/>
      <text id="_9:41" data-name="9:41" class="cls-6" transform="translate(0 8)"><tspan x="0" y="0">9:41</tspan></text>
      <path id="wifi" class="cls-4" d="M4.658,8.017a1.036,1.036,0,0,1,0-1.482,1.077,1.077,0,0,1,1.506,0,1.036,1.036,0,0,1,0,1.482,1.077,1.077,0,0,1-1.506,0ZM6.852,5.857a2.062,2.062,0,0,0-2.882,0,.63.63,0,0,1-.881,0,.6.6,0,0,1,0-.867,3.321,3.321,0,0,1,4.645,0,.606.606,0,0,1,0,.867.629.629,0,0,1-.881,0ZM8.3,4.429a4.138,4.138,0,0,0-5.784,0,.63.63,0,0,1-.881,0,.606.606,0,0,1,0-.867,5.4,5.4,0,0,1,7.547,0,.606.606,0,0,1,0,.867.63.63,0,0,1-.882,0ZM9.757,3A6.217,6.217,0,0,0,1.064,3,.63.63,0,0,1,.183,3a.607.607,0,0,1,0-.868A7.4,7.4,0,0,1,5.411,0a7.4,7.4,0,0,1,5.228,2.131.607.607,0,0,1,0,.868.63.63,0,0,1-.881,0Z" transform="translate(237.223 1.038)"/>
    </g>
    <g id="camera" transform="translate(1014.149 885.013)">
      <g id="bg" class="cls-7" transform="translate(0 0)">
        <path class="cls-10" d="M0,0H176.461a0,0,0,0,1,0,0V0a24.139,24.139,0,0,1-24.139,24.139H24.139A24.139,24.139,0,0,1,0,0V0A0,0,0,0,1,0,0Z"/>
        <path class="cls-12" d="M.789.5H175.672a.289.289,0,0,1,.289.289v0a22.849,22.849,0,0,1-22.849,22.849H23.349A22.849,22.849,0,0,1,.5.789v0A.289.289,0,0,1,.789.5Z"/>
      </g>
      <g id="camera-2" data-name="camera" class="cls-8" transform="translate(119.028 4.994)">
        <ellipse class="cls-10" cx="4.578" cy="4.578" rx="4.578" ry="4.578"/>
        <ellipse class="cls-12" cx="4.578" cy="4.578" rx="4.078" ry="4.078"/>
      </g>
      <g id="volume" class="cls-8" transform="translate(66.589 7.075)">
        <rect class="cls-10" width="43.699" height="4.994" rx="2.497"/>
        <rect class="cls-12" x="0.5" y="0.5" width="42.699" height="3.994" rx="1.997"/>
      </g>
    </g>
    <rect id="home_indicator" data-name="home indicator" class="cls-9" width="110.288" height="3.329" rx="1.665" transform="translate(1047.444 1547.575)"/>
    <rect id="Rectangle_102" data-name="Rectangle 102" class="cls-1" width="175.218" height="1.77" rx="0.885" transform="translate(1014.724 884.473)"/>
  </g>
</svg>
