<?xml version="1.0" encoding="utf-8"?>
<!-- Generator: Adobe Illustrator 21.0.0, SVG Export Plug-In . SVG Version: 6.00 Build 0)  -->
<svg version="1.1" id="Layer_1" xmlns="http://www.w3.org/2000/svg" xmlns:xlink="http://www.w3.org/1999/xlink" x="0px" y="0px"
	 viewBox="0 0 498.8 865" style="enable-background:new 0 0 498.8 865;" xml:space="preserve">
<style type="text/css">
	.st0{fill:none;}
	.st1{fill:#FAFBFB;}
	.st2{fill:#FFFFFF;}
	.st3{fill:#D6D6D6;}
	.st4{fill:#4B4B4B;}
	.st5{opacity:0.4;}
	.st6{fill:none;stroke:#C9C9C9;}
	.st7{font-family:'ArialMT';}
	.st8{font-size:11px;}
	.st9{fill:none;stroke:#D6D6D6;}
	.st10{fill:#F0F3F6;}
	.st11{fill:#E0E0E0;}
	.st12{clip-path:url(#SVGID_2_);}
	.st13{fill:#F1F1F1;}
	.st14{fill:#848282;}
	.st15{font-family:'Arial-BoldMT';}
	.st16{font-size:14.7399px;}
	.st17{fill:#F79432;stroke:#FF7920;}
	.st18{font-size:11.0549px;}
	.st19{fill:none;stroke:#878787;}
	.st20{fill:#878787;}
	.st21{font-size:18.4249px;}
	.st22{clip-path:url(#SVGID_4_);}
	.st23{fill:url(#download_2_);}
	.st24{fill:#4D4D4D;}
	.st25{font-size:12.8974px;}
	.st26{fill:none;stroke:#E8E8E8;}
	.st27{fill:#FF7920;}
	.st28{fill:#E8E8E8;}
	.st29{fill:url(#Rectangle_53_2_);}
	.st30{fill:none;stroke:#D0D0D0;}
</style>
<pattern  y="865" width="449.8" height="800" patternUnits="userSpaceOnUse" id="pattern_3" viewBox="375.1 -800 449.8 800" style="overflow:visible;">
	<g>
		<rect x="375.1" y="-800" class="st0" width="449.8" height="800"/>
		
			<image style="overflow:visible;enable-background:new    ;" width="1200" height="800" xlink:href="D1D8E47E.jpg"  transform="matrix(1 0 0 -1 0 0)">
		</image>
	</g>
</pattern>
<g id="Phone" transform="translate(2096 93)">
	<g transform="matrix(1, 0, 0, 1, -2096, -93)">
		<path id="iphone-2" class="st1" d="M121.3,75h266c25.6,0,46.3,20.1,46.3,45v625c0,24.9-20.7,45-46.3,45h-266
			C95.7,790,75,769.9,75,745V120C75,95.2,95.7,75,121.3,75z"/>
	</g>
	<g id="screen" transform="translate(946.312 885.013)">
		<path class="st2" d="M-2648.5-207.7h-279.1c-2.8,0-5.4-0.5-7.9-1.6c-2.4-1-4.6-2.4-6.5-4.3c-1.9-1.8-3.3-3.9-4.4-6.3
			c-1.1-2.4-1.6-5-1.6-7.7v-635.2c0-2.7,0.5-5.3,1.6-7.7c1-2.4,2.5-4.5,4.4-6.3c1.9-1.8,4.1-3.3,6.5-4.3c2.5-1,5.2-1.6,7.9-1.6
			h279.1c2.8,0,5.4,0.5,7.9,1.6c2.4,1,4.6,2.4,6.5,4.3c1.9,1.8,3.3,3.9,4.4,6.3c1.1,2.4,1.6,5,1.6,7.7v635.2c0,2.7-0.5,5.3-1.6,7.7
			c-1,2.4-2.5,4.5-4.4,6.3c-1.9,1.8-4.1,3.3-6.5,4.3C-2643.1-208.2-2645.7-207.7-2648.5-207.7z"/>
		<path class="st3" d="M-2648.5-208.2c2.7,0,5.3-0.5,7.7-1.5c2.4-1,4.5-2.4,6.3-4.1c1.8-1.8,3.3-3.8,4.3-6.2c1-2.4,1.6-4.9,1.6-7.5
			v-635.2c0-2.6-0.5-5.1-1.6-7.5c-1-2.3-2.4-4.4-4.3-6.2c-1.8-1.8-4-3.2-6.3-4.1c-2.5-1-5.1-1.5-7.7-1.5h-279.1
			c-2.7,0-5.3,0.5-7.7,1.5c-2.4,1-4.5,2.4-6.3,4.1c-1.8,1.8-3.3,3.8-4.3,6.2c-1,2.4-1.6,4.9-1.6,7.5v635.2c0,2.6,0.5,5.1,1.6,7.5
			c1,2.3,2.4,4.4,4.3,6.2c1.8,1.8,4,3.2,6.3,4.1c2.5,1,5.1,1.5,7.7,1.5H-2648.5 M-2648.5-207.2h-279.1c-11.6,0-20.9-9.1-20.9-20.4
			v-635.2c0-11.2,9.4-20.4,20.9-20.4h279.1c11.6,0,20.9,9.1,20.9,20.4v635.2C-2627.6-216.3-2636.9-207.2-2648.5-207.2z"/>
	</g>
	<g id="status_bar" transform="translate(974.612 895.212)">
		<g id="battery" transform="translate(253.038 1.038)">
			<path id="Tip" class="st4" d="M-2924-880.5c0.9,0.2,1.5,1.1,1.2,2c-0.2,0.6-0.6,1-1.2,1.2V-880.5z"/>
			<path id="Fill" class="st4" d="M-2938.3-881.4h11.1c0.6,0,1,0.4,1,1v3c0,0.6-0.5,1-1,1h-11.1c-0.6,0-1-0.4-1-1v-3
				C-2939.3-880.9-2938.8-881.4-2938.3-881.4z"/>
			<g id="Outline" transform="translate(0 0)" class="st5">
				<path class="st0" d="M-2938-883h10.6c1.4,0,2.6,1.1,2.6,2.5v3.3c0,1.4-1.2,2.5-2.6,2.5h-10.6c-1.4,0-2.6-1.1-2.6-2.5v-3.3
					C-2940.6-881.9-2939.4-883-2938-883z"/>
				<path class="st6" d="M-2938-882.5h10.6c1.1,0,2.1,0.9,2.1,2v3.3c0,1.1-0.9,2-2.1,2h-10.6c-1.1,0-2.1-0.9-2.1-2v-3.3
					C-2940-881.6-2939.1-882.5-2938-882.5z"/>
			</g>
		</g>
		<path id="radian" class="st4" d="M-2711.1-874.7v-6.2c0-0.6,0.5-1,1.1-1c0.6,0,1.1,0.5,1.1,1v6.2c0,0.6-0.5,1-1.1,1
			C-2710.6-873.7-2711.1-874.1-2711.1-874.7C-2711.1-874.7-2711.1-874.7-2711.1-874.7z M-2714.9-874.7v-4.2c0-0.6,0.5-1,1.1-1
			c0.6,0,1.1,0.5,1.1,1v4.2c0,0.6-0.5,1-1.1,1C-2714.4-873.7-2714.9-874.1-2714.9-874.7z M-2718.8-874.7v-2.5c0-0.6,0.5-1,1.1-1
			s1.1,0.5,1.1,1v2.5c0,0.6-0.5,1-1.1,1S-2718.8-874.1-2718.8-874.7z M-2722.6-874.7v-0.8c0-0.6,0.5-1,1.1-1s1.1,0.5,1.1,1v0.8
			c0,0.6-0.5,1-1.1,1S-2722.6-874.1-2722.6-874.7z"/>
		<text transform="matrix(1.0282 0 0 1 -2947.6877 -875.0372)" class="st4 st7 st8">9:41</text>
		<path id="wifi" class="st4" d="M-2699-874c-0.4-0.4-0.4-1.1,0-1.5c0,0,0,0,0,0c0.4-0.4,1.1-0.4,1.5,0c0.4,0.4,0.4,1.1,0,1.5
			c0,0,0,0,0,0C-2697.9-873.6-2698.6-873.6-2699-874z M-2696.7-876.1c-0.8-0.8-2.1-0.8-3,0c-0.3,0.2-0.7,0.2-0.9,0
			c-0.2-0.2-0.3-0.6,0-0.8c0,0,0,0,0,0c1.3-1.3,3.4-1.3,4.8,0c0.2,0.2,0.3,0.6,0,0.9c0,0,0,0,0,0
			C-2696.1-875.9-2696.5-875.9-2696.7-876.1L-2696.7-876.1z M-2695.3-877.6c-1.7-1.6-4.3-1.6-5.9,0c-0.3,0.2-0.7,0.2-0.9,0
			c-0.2-0.2-0.3-0.6,0-0.9c0,0,0,0,0,0c2.2-2,5.6-2,7.8,0c0.2,0.2,0.3,0.6,0,0.9c0,0,0,0,0,0C-2694.6-877.3-2695-877.3-2695.3-877.6
			z M-2693.8-879c-2.5-2.4-6.5-2.4-8.9,0c-0.3,0.2-0.7,0.2-0.9,0c-0.2-0.2-0.3-0.6,0-0.9c0,0,0,0,0,0c1.4-1.4,3.4-2.1,5.4-2.1
			c2,0,3.9,0.8,5.4,2.1c0.2,0.2,0.3,0.6,0,0.9c0,0,0,0,0,0C-2693.1-878.8-2693.5-878.8-2693.8-879L-2693.8-879z"/>
	</g>
	<g id="camera" transform="translate(1014.149 885.013)">
		<g id="bg" transform="translate(0 0)">
			<path class="st1" d="M-2946.6-883h181.4l0,0l0,0c0,13.3-11.1,24.1-24.8,24.1l0,0h-131.8C-2935.5-858.9-2946.6-869.7-2946.6-883
				L-2946.6-883L-2946.6-883z"/>
			<path class="st9" d="M-2945.8-882.5h179.8c0.2,0,0.3,0.1,0.3,0.3c0,0,0,0,0,0l0,0c0,12.6-10.5,22.8-23.5,22.8h-133.4
				c-13,0-23.5-10.2-23.5-22.8l0,0C-2946.1-882.4-2945.9-882.5-2945.8-882.5z"/>
		</g>
		<g id="camera-2" transform="translate(119.028 4.994)">
			<ellipse class="st10" cx="-2938.5" cy="-878.5" rx="4.7" ry="4.6"/>
			<ellipse class="st9" cx="-2938.5" cy="-878.5" rx="4.2" ry="4.1"/>
		</g>
		<g id="volume" transform="translate(66.589 7.075)">
			<path class="st10" d="M-2942.1-883h39.8c1.4,0,2.6,1.1,2.6,2.5l0,0c0,1.4-1.1,2.5-2.6,2.5h-39.8c-1.4,0-2.6-1.1-2.6-2.5l0,0
				C-2944.7-881.9-2943.5-883-2942.1-883z"/>
			<path class="st9" d="M-2942.1-882.5h39.8c1.1,0,2.1,0.9,2.1,2l0,0c0,1.1-0.9,2-2.1,2h-39.8c-1.1,0-2.1-0.9-2.1-2l0,0
				C-2944.2-881.6-2943.3-882.5-2942.1-882.5z"/>
		</g>
	</g>
	<path id="home_indicator" class="st11" d="M-1896.5,664.5h110c0.9,0,1.7,0.7,1.7,1.7l0,0c0,0.9-0.8,1.7-1.7,1.7h-110
		c-0.9,0-1.7-0.7-1.7-1.7l0,0C-1898.2,665.3-1897.4,664.5-1896.5,664.5z"/>
	<path id="Rectangle_102" class="st1" d="M-1930.9,1.4h178.3c0.5,0,0.9,0.4,0.9,0.9l0,0c0,0.5-0.4,0.9-0.9,0.9h-178.3
		c-0.5,0-0.9-0.4-0.9-0.9l0,0C-1931.8,1.8-1931.4,1.4-1930.9,1.4z"/>
</g>
<g>
	<g>
		<defs>
			<rect id="SVGID_1_" x="94.8" y="119.1" width="317.3" height="614.5"/>
		</defs>
		<clipPath id="SVGID_2_">
			<use xlink:href="#SVGID_1_"  style="overflow:visible;"/>
		</clipPath>
		<g class="st12">
			<rect x="94.8" y="119.1" class="st13" width="317.3" height="614.5"/>
			<g id="Top_Bar_1_" transform="translate(2489)">
				<g id="Group_2282_1_">
					<g id="Background-2_1_" transform="translate(-813 -113)">
						<g transform="matrix(1, 0, 0, 1, -1676, 113)">
							<rect id="Background-3_1_" x="94.8" y="119.1" class="st2" width="317.3" height="70.1"/>
						</g>
						<g id="Group_278_1_" transform="translate(1158 154)">
							<path id="Path_1532_1_" class="st14" d="M-2442.7,129.1c-0.8,0-1.5,0.7-1.5,1.7c0,0.9,0.7,1.7,1.5,1.7s1.5-0.7,1.5-1.7l0,0
								C-2441.2,129.9-2441.9,129.1-2442.7,129.1z M-2447.3,115.9v1.7h1.5l2.7,6.3l-1.1,2c-0.1,0.3-0.1,0.5-0.2,0.8
								c0,0.9,0.7,1.7,1.5,1.7h9.1v-1.7h-8.8c-0.1,0-0.1-0.1-0.2-0.2v-0.1l0.7-1.4h5.6c0.5,0,1-0.3,1.3-0.8l2.7-5.4
								c0.1-0.1,0.2-0.3,0.2-0.4c0-0.4-0.3-0.8-0.7-0.8c0,0-0.1,0-0.1,0h-11.3l-0.7-1.7H-2447.3z M-2435.1,129.1
								c-0.8,0-1.5,0.7-1.5,1.7s0.7,1.7,1.5,1.7c0.8,0,1.5-0.7,1.5-1.7c0,0,0,0,0,0C-2433.6,129.9-2434.3,129.1-2435.1,129.1z"/>
						</g>
					</g>
					<g id="Group_2265_1_" transform="translate(0 -12)">
						<text transform="matrix(0.9183 0 0 1 -2275.6221 182.6943)" class="st4 st15 st16">Today’s Menu</text>
					</g>
				</g>
				<g id="Left_Accessory_1_" transform="translate(0 40)">
					<rect id="boundary_1_" x="-2394.2" y="116" class="st0" width="152.3" height="40.5"/>
					<g id="Chevron_Selected_1_" transform="translate(7 8)">
						<rect id="background-4_1_" x="-2395.3" y="115.3" class="st0" width="13.5" height="25.8"/>
					</g>
				</g>
				<g id="Menu_1_" transform="translate(-15)">
					<path id="Rectangle_54_1_" class="st14" d="M-2369.9,157.8h13.5c0.5,0,0.8,0.4,0.8,0.9l0,0c0,0.5-0.4,0.9-0.8,0.9h-13.5
						c-0.5,0-0.8-0.4-0.8-0.9l0,0C-2370.7,158.2-2370.3,157.8-2369.9,157.8z"/>
					<path id="Rectangle_55_1_" class="st14" d="M-2369.9,162.4h7.6c0.5,0,0.8,0.4,0.8,0.9l0,0c0,0.5-0.4,0.9-0.8,0.9h-7.6
						c-0.5,0-0.8-0.4-0.8-0.9l0,0C-2370.7,162.8-2370.3,162.4-2369.9,162.4z"/>
					<path id="Rectangle_56_1_" class="st14" d="M-2369.9,167h16.9c0.5,0,0.8,0.4,0.8,0.9l0,0c0,0.5-0.4,0.9-0.8,0.9h-16.9
						c-0.5,0-0.8-0.4-0.8-0.9l0,0C-2370.7,167.4-2370.3,167-2369.9,167z"/>
					<path id="Rectangle_57_1_" class="st14" d="M-2369.9,171.6h12.7c0.5,0,0.8,0.4,0.8,0.9l0,0c0,0.5-0.4,0.9-0.8,0.9h-12.7
						c-0.5,0-0.8-0.4-0.8-0.9l0,0C-2370.7,172-2370.3,171.6-2369.9,171.6z"/>
				</g>
			</g>
			<g id="Recommended_1_" transform="translate(2479 13.5)">
				<path id="Rectangle_36_1_" class="st17" d="M-2362.6,191.3h71.9c7,0,12.7,6.2,12.7,13.8l0,0c0,7.6-5.7,13.8-12.7,13.8h-71.9
					c-7,0-12.7-6.2-12.7-13.8l0,0C-2375.3,197.5-2369.6,191.3-2362.6,191.3z"/>
				<text transform="matrix(0.9183 0 0 1 -2360.4834 209.2441)" class="st2 st15 st18">RECOMMENDED</text>
			</g>
			<g id="Pizza_1_" transform="translate(2602 13.5)">
				<path id="Rectangle_36-2_1_" class="st19" d="M-2381.5,191.3h49.9c7,0,12.7,6.2,12.7,13.8l0,0c0,7.6-5.7,13.8-12.7,13.8h-49.9
					c-7,0-12.7-6.2-12.7-13.8l0,0C-2394.2,197.5-2388.5,191.3-2381.5,191.3z"/>
				<text transform="matrix(0.9183 0 0 1 -2378.5781 209.2441)" class="st20 st15 st18">JAPANESE</text>
			</g>
			<g id="Indian_1_" transform="translate(2699 13.5)">
				<path id="Rectangle_36-3_1_" class="st19" d="M-2396.5,191.3h37.2c7,0,12.7,6.2,12.7,13.8l0,0c0,7.6-5.7,13.8-12.7,13.8h-37.2
					c-7,0-12.7-6.2-12.7-13.8l0,0C-2409.2,197.5-2403.5,191.3-2396.5,191.3z"/>
				<text transform="matrix(0.9183 0 0 1 -2393.5146 209.2441)" class="st20 st15 st18">INDIAN</text>
			</g>
			<g id="Indian-2_1_" transform="translate(2781 13.5)">
				<path id="Rectangle_36-4_1_" class="st19" d="M-2409.1,191.3h42.3c7,0,12.7,6.2,12.7,13.8l0,0c0,7.6-5.7,13.8-12.7,13.8h-42.3
					c-7,0-12.7-6.2-12.7-13.8l0,0C-2421.8,197.5-2416.1,191.3-2409.1,191.3z"/>
				<text transform="matrix(0.9183 0 0 1 -2406.1426 209.2441)" class="st20 st15 st18">MEXICAN</text>
			</g>
			<g id="Bg_1_" transform="translate(2499 248)">
				<g transform="matrix(1, 0, 0, 1, -2499, -248)">
					<rect id="Rectangle_63-2_1_" x="103.3" y="247.2" class="st2" width="300.3" height="475.4"/>
				</g>
			</g>
			<text transform="matrix(0.9183 0 0 1 114.2861 466.4141)" class="st4 st7 st21">Roasted chicken with garlic and</text>
			<text transform="matrix(0.9183 0 0 1 114.2861 486.6807)" class="st4 st7 st21">rosemary in cherry tomatoes</text>
			<g id="Recommended_Dishes_Backup_1_1_">
				<defs>
					<rect id="SVGID_3_" x="116" y="259.1" width="275.2" height="176"/>
				</defs>
				<clipPath id="SVGID_4_">
					<use xlink:href="#SVGID_3_"  style="overflow:visible;"/>
				</clipPath>
				<g id="Mask_Group_3_1_" transform="translate(2479 -26)" class="st22">
					<pattern  id="download_2_" xlink:href="#pattern_3" patternTransform="matrix(0.2737 0 0 -0.2737 -3068.822 -11307.2598)">
					</pattern>
					<path id="download_1_" class="st23" d="M-2365.7,267.3h277.8V469h-277.8V267.3z"/>
				</g>
				<text transform="matrix(0.9183 0 0 1 115.1318 572.3564)" class="st24 st15 st25">Description:</text>
				<text transform="matrix(0.9183 0 0 1 115.1318 588.9395)" class="st14 st7 st25">Although widely associated with Indian cuisine, </text>
				<text transform="matrix(0.9183 0 0 1 115.1318 605.5215)" class="st14 st7 st25">Chicken Biryani is a dish that has spread across a wide</text>
				<text transform="matrix(0.9183 0 0 1 115.1318 622.1035)" class="st14 st7 st25">swath of South Asia, reaching as far west as Iraq, and</text>
				<text transform="matrix(0.9183 0 0 1 115.1318 638.6865)" class="st14 st7 st25">as far east as Indonesia. The vast geographical area</text>
				<text transform="matrix(0.9183 0 0 1 115.1318 655.2695)" class="st14 st7 st25">Biryani calls home has resulted in a huge variety of</text>
				<text transform="matrix(0.9183 0 0 1 115.1318 671.8516)" class="st14 st7 st25">preparations and ingredients.</text>
				<text transform="matrix(0.9183 0 0 1 115.1318 705.0166)" class="st14 st7 st25">Chicken Biryani is a delicious savory rice dish that&apos;s</text>
				<text transform="matrix(0.9183 0 0 1 115.1318 721.5986)" class="st14 st7 st25">loaded with spicy marinated chicken, caramelized</text>
				<text transform="matrix(0.9183 0 0 1 115.1318 738.1816)" class="st14 st7 st25">onions, and flavorful saffron rice.</text>
				<text transform="matrix(0.9183 0 0 1 115.1318 771.3457)" class="st24 st15 st25">Ingredients:</text>
				<text transform="matrix(0.9183 0 0 1 115.1318 787.9287)" class="st14 st7 st25">Chicken, galric, rosemary, cherry tomates, onions, </text>
				<text transform="matrix(0.9183 0 0 1 115.1318 804.5107)" class="st14 st7 st25">basil, olive oil, balsamic vinegar, salt, pepper, oregano.</text>
				<g id="Details_1_" transform="translate(2489 148)" class="st22">
					<path id="Path_1535_1_" class="st26" d="M-2373.4,396.3l275-0.9"/>
					<path id="Path_1537_1_" class="st26" d="M-2374.3,358.5l275-0.9"/>
					<text transform="matrix(0.9183 0 0 1 -2157.2891 381.0586)" class="st27 st15 st16">9.99$</text>
					<text transform="matrix(0.9183 0 0 1 -2255.71 381.0586)" class="st24 st7 st16">350 cal</text>
					<text transform="matrix(0.9183 0 0 1 -2342.4971 381.0586)" class="st24 st7 st16">450g</text>
					<rect id="Rectangle_109_1_" x="-2282.5" y="365.4" class="st28" width="0.8" height="23"/>
					<rect id="Rectangle_110_1_" x="-2190.3" y="365.4" class="st28" width="0.8" height="23"/>
				</g>
				<g id="Price_1_" transform="translate(2489)" class="st22">
					<g transform="matrix(1, 0, 0, 1, -2489, 0)">
						<path id="Path_1534-2_1_" class="st2" d="M94.8,673.7h317.3v59.9H94.8V673.7z"/>
					</g>
					<g id="Button_1_" transform="translate(-23.5 137)">
						
							<linearGradient id="Rectangle_53_2_" gradientUnits="userSpaceOnUse" x1="-2463.9468" y1="727.2911" x2="-2464.8213" y2="726.4067" gradientTransform="matrix(177.5 0 0 -50 435291.625 36908.5)">
							<stop  offset="0" style="stop-color:#F79432"/>
							<stop  offset="1" style="stop-color:#FF7920"/>
						</linearGradient>
						<path id="Rectangle_53_1_" class="st29" d="M-2208.7,543.1h143.4c1.9,0,3.4,1.6,3.4,3.7v38.7c0,2-1.5,3.7-3.4,3.7h-143.4
							c-1.9,0-3.4-1.6-3.4-3.7v-38.7C-2212,544.8-2210.5,543.1-2208.7,543.1z"/>
						<text transform="matrix(0.9183 0 0 1 -2177.6475 571.7012)" class="st2 st15 st16">ADD TO BASKET</text>
					</g>
					<g id="Group_2283_1_" transform="translate(-20 -3)">
						<path id="Union_1_1_" class="st24" d="M-2266.5,712.6V707h-5.2v-1.6h5.2v-5.6h1.5v5.6h5.2v1.6h-5.2v5.6H-2266.5z"/>
						<path id="Rectangle-9_1_" class="st30" d="M-2282.6,683.1h33.4c2.5,0,4.5,2.2,4.5,4.8l0,0v36.4c0,2.7-2,4.8-4.5,4.8l0,0h-33.4
							c-2.5,0-4.5-2.2-4.5-4.8c0,0,0,0,0,0V688C-2287,685.3-2285,683.1-2282.6,683.1z"/>
					</g>
					<rect id="Rectangle_66_1_" x="-2369.5" y="702.3" class="st24" width="11" height="1.5"/>
					<path id="Rectangle-9-2_1_" class="st30" d="M-2380.4,680.1h33.4c2.5,0,4.5,2.2,4.5,4.8l0,0v36.4c0,2.7-2,4.8-4.5,4.8l0,0
						h-33.4c-2.5,0-4.5-2.2-4.5-4.8c0,0,0,0,0,0V685C-2384.9,682.3-2382.9,680.1-2380.4,680.1z"/>
					<text transform="matrix(0.9183 0 0 1 -2328.1836 707.7803)" class="st4 st7 st16">1</text>
				</g>
			</g>
		</g>
	</g>
</g>
</svg>
