<?xml version="1.0" encoding="utf-8"?>
<!-- Generator: Adobe Illustrator 21.0.0, SVG Export Plug-In . SVG Version: 6.00 Build 0)  -->
<svg version="1.1" id="Layer_1" xmlns="http://www.w3.org/2000/svg" xmlns:xlink="http://www.w3.org/1999/xlink" x="0px" y="0px"
	 viewBox="0 0 498.8 865" style="enable-background:new 0 0 498.8 865;" xml:space="preserve">
<style type="text/css">
	.st0{fill:#FAFBFB;}
	.st1{fill:#FFFFFF;}
	.st2{fill:#D6D6D6;}
	.st3{fill:#4B4B4B;}
	.st4{opacity:0.4;}
	.st5{fill:none;}
	.st6{fill:none;stroke:#C9C9C9;}
	.st7{font-family:'ArialMT';}
	.st8{font-size:11px;}
	.st9{fill:none;stroke:#D6D6D6;}
	.st10{fill:#F0F3F6;}
	.st11{fill:#E0E0E0;}
	.st12{clip-path:url(#SVGID_2_);}
	.st13{fill:#F1F1F1;}
	.st14{fill:#848282;}
	.st15{font-family:'Arial-BoldMT';}
	.st16{font-size:14.2458px;}
	.st17{font-size:26.7109px;}
	.st18{font-size:17.8073px;}
	.st19{fill:#BCBCBC;}
	.st20{fill:url(#Rectangle_83-5_2_);}
	.st21{fill:#4D4D4D;}
	.st22{font-size:12.4651px;}
	.st23{fill:#F5F5F5;stroke:#F79432;}
	.st24{fill:url(#Rectangle_84-2_2_);}
</style>
<g id="Phone" transform="translate(2096 93)">
	<g transform="matrix(1, 0, 0, 1, -2096, -93)">
		<path id="iphone-2" class="st0" d="M121.3,75h266c25.6,0,46.3,20.1,46.3,45v625c0,24.9-20.7,45-46.3,45h-266
			C95.7,790,75,769.9,75,745V120C75,95.2,95.7,75,121.3,75z"/>
	</g>
	<g id="screen" transform="translate(946.312 885.013)">
		<path class="st1" d="M-2648.5-207.7h-279.1c-2.8,0-5.4-0.5-7.9-1.6c-2.4-1-4.6-2.4-6.5-4.3c-1.9-1.8-3.3-3.9-4.4-6.3
			c-1.1-2.4-1.6-5-1.6-7.7v-635.2c0-2.7,0.5-5.3,1.6-7.7c1-2.4,2.5-4.5,4.4-6.3c1.9-1.8,4.1-3.3,6.5-4.3c2.5-1,5.2-1.6,7.9-1.6
			h279.1c2.8,0,5.4,0.5,7.9,1.6c2.4,1,4.6,2.4,6.5,4.3c1.9,1.8,3.3,3.9,4.4,6.3c1.1,2.4,1.6,5,1.6,7.7v635.2c0,2.7-0.5,5.3-1.6,7.7
			c-1,2.4-2.5,4.5-4.4,6.3c-1.9,1.8-4.1,3.3-6.5,4.3C-2643.1-208.2-2645.7-207.7-2648.5-207.7z"/>
		<path class="st2" d="M-2648.5-208.2c2.7,0,5.3-0.5,7.7-1.5c2.4-1,4.5-2.4,6.3-4.1c1.8-1.8,3.3-3.8,4.3-6.2c1-2.4,1.6-4.9,1.6-7.5
			v-635.2c0-2.6-0.5-5.1-1.6-7.5c-1-2.3-2.4-4.4-4.3-6.2c-1.8-1.8-4-3.2-6.3-4.1c-2.5-1-5.1-1.5-7.7-1.5h-279.1
			c-2.7,0-5.3,0.5-7.7,1.5c-2.4,1-4.5,2.4-6.3,4.1c-1.8,1.8-3.3,3.8-4.3,6.2c-1,2.4-1.6,4.9-1.6,7.5v635.2c0,2.6,0.5,5.1,1.6,7.5
			c1,2.3,2.4,4.4,4.3,6.2c1.8,1.8,4,3.2,6.3,4.1c2.5,1,5.1,1.5,7.7,1.5H-2648.5 M-2648.5-207.2h-279.1c-11.6,0-20.9-9.1-20.9-20.4
			v-635.2c0-11.2,9.4-20.4,20.9-20.4h279.1c11.6,0,20.9,9.1,20.9,20.4v635.2C-2627.6-216.3-2636.9-207.2-2648.5-207.2z"/>
	</g>
	<g id="status_bar" transform="translate(974.612 895.212)">
		<g id="battery" transform="translate(253.038 1.038)">
			<path id="Tip" class="st3" d="M-2924-880.5c0.9,0.2,1.5,1.1,1.2,2c-0.2,0.6-0.6,1-1.2,1.2V-880.5z"/>
			<path id="Fill" class="st3" d="M-2938.3-881.4h11.1c0.6,0,1,0.4,1,1v3c0,0.6-0.5,1-1,1h-11.1c-0.6,0-1-0.4-1-1v-3
				C-2939.3-880.9-2938.8-881.4-2938.3-881.4z"/>
			<g id="Outline" transform="translate(0 0)" class="st4">
				<path class="st5" d="M-2938-883h10.6c1.4,0,2.6,1.1,2.6,2.5v3.3c0,1.4-1.2,2.5-2.6,2.5h-10.6c-1.4,0-2.6-1.1-2.6-2.5v-3.3
					C-2940.6-881.9-2939.4-883-2938-883z"/>
				<path class="st6" d="M-2938-882.5h10.6c1.1,0,2.1,0.9,2.1,2v3.3c0,1.1-0.9,2-2.1,2h-10.6c-1.1,0-2.1-0.9-2.1-2v-3.3
					C-2940-881.6-2939.1-882.5-2938-882.5z"/>
			</g>
		</g>
		<path id="radian" class="st3" d="M-2711.1-874.7v-6.2c0-0.6,0.5-1,1.1-1c0.6,0,1.1,0.5,1.1,1v6.2c0,0.6-0.5,1-1.1,1
			C-2710.6-873.7-2711.1-874.1-2711.1-874.7C-2711.1-874.7-2711.1-874.7-2711.1-874.7z M-2714.9-874.7v-4.2c0-0.6,0.5-1,1.1-1
			c0.6,0,1.1,0.5,1.1,1v4.2c0,0.6-0.5,1-1.1,1C-2714.4-873.7-2714.9-874.1-2714.9-874.7z M-2718.8-874.7v-2.5c0-0.6,0.5-1,1.1-1
			s1.1,0.5,1.1,1v2.5c0,0.6-0.5,1-1.1,1S-2718.8-874.1-2718.8-874.7z M-2722.6-874.7v-0.8c0-0.6,0.5-1,1.1-1s1.1,0.5,1.1,1v0.8
			c0,0.6-0.5,1-1.1,1S-2722.6-874.1-2722.6-874.7z"/>
		<text transform="matrix(1.0282 0 0 1 -2947.6877 -875.0372)" class="st3 st7 st8">9:41</text>
		<path id="wifi" class="st3" d="M-2699-874c-0.4-0.4-0.4-1.1,0-1.5c0,0,0,0,0,0c0.4-0.4,1.1-0.4,1.5,0c0.4,0.4,0.4,1.1,0,1.5
			c0,0,0,0,0,0C-2697.9-873.6-2698.6-873.6-2699-874z M-2696.7-876.1c-0.8-0.8-2.1-0.8-3,0c-0.3,0.2-0.7,0.2-0.9,0
			c-0.2-0.2-0.3-0.6,0-0.8c0,0,0,0,0,0c1.3-1.3,3.4-1.3,4.8,0c0.2,0.2,0.3,0.6,0,0.9c0,0,0,0,0,0
			C-2696.1-875.9-2696.5-875.9-2696.7-876.1L-2696.7-876.1z M-2695.3-877.6c-1.7-1.6-4.3-1.6-5.9,0c-0.3,0.2-0.7,0.2-0.9,0
			c-0.2-0.2-0.3-0.6,0-0.9c0,0,0,0,0,0c2.2-2,5.6-2,7.8,0c0.2,0.2,0.3,0.6,0,0.9c0,0,0,0,0,0C-2694.6-877.3-2695-877.3-2695.3-877.6
			z M-2693.8-879c-2.5-2.4-6.5-2.4-8.9,0c-0.3,0.2-0.7,0.2-0.9,0c-0.2-0.2-0.3-0.6,0-0.9c0,0,0,0,0,0c1.4-1.4,3.4-2.1,5.4-2.1
			c2,0,3.9,0.8,5.4,2.1c0.2,0.2,0.3,0.6,0,0.9c0,0,0,0,0,0C-2693.1-878.8-2693.5-878.8-2693.8-879L-2693.8-879z"/>
	</g>
	<g id="camera" transform="translate(1014.149 885.013)">
		<g id="bg" transform="translate(0 0)">
			<path class="st0" d="M-2946.6-883h181.4l0,0l0,0c0,13.3-11.1,24.1-24.8,24.1l0,0h-131.8C-2935.5-858.9-2946.6-869.7-2946.6-883
				L-2946.6-883L-2946.6-883z"/>
			<path class="st9" d="M-2945.8-882.5h179.8c0.2,0,0.3,0.1,0.3,0.3c0,0,0,0,0,0l0,0c0,12.6-10.5,22.8-23.5,22.8h-133.4
				c-13,0-23.5-10.2-23.5-22.8l0,0C-2946.1-882.4-2945.9-882.5-2945.8-882.5z"/>
		</g>
		<g id="camera-2" transform="translate(119.028 4.994)">
			<ellipse class="st10" cx="-2938.5" cy="-878.5" rx="4.7" ry="4.6"/>
			<ellipse class="st9" cx="-2938.5" cy="-878.5" rx="4.2" ry="4.1"/>
		</g>
		<g id="volume" transform="translate(66.589 7.075)">
			<path class="st10" d="M-2942.1-883h39.8c1.4,0,2.6,1.1,2.6,2.5l0,0c0,1.4-1.1,2.5-2.6,2.5h-39.8c-1.4,0-2.6-1.1-2.6-2.5l0,0
				C-2944.7-881.9-2943.5-883-2942.1-883z"/>
			<path class="st9" d="M-2942.1-882.5h39.8c1.1,0,2.1,0.9,2.1,2l0,0c0,1.1-0.9,2-2.1,2h-39.8c-1.1,0-2.1-0.9-2.1-2l0,0
				C-2944.2-881.6-2943.3-882.5-2942.1-882.5z"/>
		</g>
	</g>
	<path id="home_indicator" class="st11" d="M-1896.5,664.5h110c0.9,0,1.7,0.7,1.7,1.7l0,0c0,0.9-0.8,1.7-1.7,1.7h-110
		c-0.9,0-1.7-0.7-1.7-1.7l0,0C-1898.2,665.3-1897.4,664.5-1896.5,664.5z"/>
	<path id="Rectangle_102" class="st0" d="M-1930.9,1.4h178.3c0.5,0,0.9,0.4,0.9,0.9l0,0c0,0.5-0.4,0.9-0.9,0.9h-178.3
		c-0.5,0-0.9-0.4-0.9-0.9l0,0C-1931.8,1.8-1931.4,1.4-1930.9,1.4z"/>
</g>
<g>
	<g>
		<defs>
			<rect id="SVGID_1_" x="95.6" y="133.2" width="316.1" height="593.9"/>
		</defs>
		<clipPath id="SVGID_2_">
			<use xlink:href="#SVGID_1_"  style="overflow:visible;"/>
		</clipPath>
		<g id="Tracking_1_1_" class="st12">
			<rect x="95.6" y="133.2" class="st13" width="316.1" height="593.9"/>
			<g id="Top_Bar_1_" transform="translate(7054 10)">
				<g id="Group_2282_1_">
					<g id="Background-2_1_" transform="translate(-813 -113)">
						<g transform="matrix(1, 0, 0, 1, -6241, 103)">
							<rect id="Background-3_1_" x="95.6" y="133.2" class="st1" width="316.1" height="67.7"/>
						</g>
						<g id="Group_278_1_" transform="translate(1158 154)">
							<path id="Path_1532_1_" class="st14" d="M-7008,131.5c-0.8,0-1.5,0.7-1.5,1.6s0.7,1.6,1.5,1.6s1.5-0.7,1.5-1.6l0,0
								C-7006.5,132.2-7007.2,131.5-7008,131.5z M-7012.6,118.7v1.6h1.5l2.7,6.1l-1.1,1.9c-0.1,0.3-0.1,0.5-0.2,0.8
								c0,0.9,0.7,1.6,1.5,1.6h9.1v-1.6h-8.8c-0.1,0-0.1-0.1-0.2-0.2v-0.1l0.7-1.4h5.6c0.5,0,1-0.3,1.3-0.8l2.7-5.2
								c0.1-0.1,0.2-0.2,0.2-0.4c0-0.4-0.3-0.8-0.7-0.8c0,0-0.1,0-0.1,0h-11.2l-0.7-1.6H-7012.6z M-7000.4,131.5
								c-0.8,0-1.5,0.7-1.5,1.6s0.7,1.6,1.5,1.6s1.5-0.7,1.5-1.6c0,0,0,0,0,0C-6998.9,132.2-6999.6,131.5-7000.4,131.5z"/>
						</g>
					</g>
					<g id="Group_2265_1_" transform="translate(0 -12)">
						<text transform="matrix(0.9467 0 0 1 -6844.2017 185.0645)" class="st3 st15 st16">Order Tracking</text>
					</g>
				</g>
				<g id="Left_Accessory_1_" transform="translate(0 40)">
					<rect id="boundary_1_" x="-6958.4" y="118.8" class="st5" width="151.7" height="39.2"/>
					<g id="Chevron_Selected_1_" transform="translate(7 8)">
						<rect id="background-4_1_" x="-6959.5" y="117.9" class="st5" width="13.5" height="24.9"/>
					</g>
				</g>
				<g id="Menu_1_" transform="translate(-15)">
					<rect id="Rectangle_133_1_" x="-6939.2" y="154.4" class="st1" width="24.4" height="27.6"/>
					<path id="Rectangle_54_1_" class="st14" d="M-6934.1,160.6h13.5c0.5,0,0.8,0.4,0.8,0.9l0,0c0,0.5-0.4,0.9-0.8,0.9h-13.5
						c-0.5,0-0.8-0.4-0.8-0.9l0,0C-6934.9,161-6934.6,160.6-6934.1,160.6z"/>
					<path id="Rectangle_55_1_" class="st14" d="M-6934.1,165.1h7.6c0.5,0,0.8,0.4,0.8,0.9l0,0c0,0.5-0.4,0.9-0.8,0.9h-7.6
						c-0.5,0-0.8-0.4-0.8-0.9l0,0C-6934.9,165.4-6934.6,165.1-6934.1,165.1z"/>
					<path id="Rectangle_56_1_" class="st14" d="M-6934.1,169.5h16.9c0.5,0,0.8,0.4,0.8,0.9l0,0c0,0.5-0.4,0.9-0.8,0.9h-16.9
						c-0.5,0-0.8-0.4-0.8-0.9l0,0C-6934.9,169.9-6934.6,169.5-6934.1,169.5z"/>
					<path id="Rectangle_57_1_" class="st14" d="M-6934.1,174h12.6c0.5,0,0.8,0.4,0.8,0.9l0,0c0,0.5-0.4,0.9-0.8,0.9h-12.6
						c-0.5,0-0.8-0.4-0.8-0.9l0,0C-6934.9,174.4-6934.6,174-6934.1,174z"/>
				</g>
			</g>
			<g id="Welcome_1_" transform="translate(6937 -205)">
				<text transform="matrix(0.9467 0 0 1 -6820.3032 445.0474)" class="st3 st7 st17">Your food is on the way!</text>
				<text transform="matrix(0.9467 0 0 1 -6820.3032 474.4297)" class="st14 st7 st18">We received your order and we&apos;re </text>
				<text transform="matrix(0.9467 0 0 1 -6820.3032 496.6885)" class="st14 st7 st18">moving as fast as we can. Below you </text>
				<text transform="matrix(0.9467 0 0 1 -6820.3032 518.9478)" class="st14 st7 st18">can see the progress of your order.</text>
			</g>
			<g id="Group_2292_1_" transform="translate(7078 252)">
				<rect id="Rectangle-33_1_" x="-6958.8" y="96.7" class="st19" width="1.7" height="287.6"/>
				<g id="Rectangle-9_1_">
					<g transform="matrix(1, 0, 0, 1, -7078, -252)">
						
							<linearGradient id="Rectangle_83-5_2_" gradientUnits="userSpaceOnUse" x1="8.7049" y1="860.1869" x2="8.7049" y2="861.1155" gradientTransform="matrix(18 0 0 -18 -36.6201 15844.5)">
							<stop  offset="0" style="stop-color:#FF7920"/>
							<stop  offset="1" style="stop-color:#F79432"/>
						</linearGradient>
						<path id="Rectangle_83-5_1_" class="st20" d="M120.1,345.1L120.1,345.1c4.2,0,7.6,3.6,7.6,8l0,0c0,4.4-3.4,8-7.6,8l0,0
							c-4.2,0-7.6-3.6-7.6-8l0,0C112.5,348.7,115.9,345.1,120.1,345.1z"/>
					</g>
					<path id="Combined-Shape_1_" class="st1" d="M-6958.3,102.3l3.6-3.8l1.2,1.3l-4.8,5l-3-3.1l1.2-1.3L-6958.3,102.3z"/>
				</g>
			</g>
			<text transform="matrix(0.9467 0 0 1 138.6138 358.4658)" class="st21 st15 st22">Order Received</text>
			<text transform="matrix(0.9467 0 0 1 138.6138 374.4922)" class="st14 st7 st22">Seal Your Meal received your order. You will</text>
			<text transform="matrix(0.9467 0 0 1 138.6138 390.519)" class="st14 st7 st22">get notified once the order is accepted.</text>
			<g id="Group_2293_1_" transform="translate(7054 -11)">
				<text transform="matrix(0.9467 0 0 1 -6915.3862 440.6953)" class="st21 st15 st22">Order Accepted</text>
				<text transform="matrix(0.9467 0 0 1 -6915.3862 456.7217)" class="st14 st7 st22">Your payment has been accepted. Our chefs</text>
				<text transform="matrix(0.9467 0 0 1 -6915.3862 472.748)" class="st14 st7 st22">started cooking your meal.</text>
			</g>
			<g id="Group_2294_1_" transform="translate(7054 68)">
				<g transform="matrix(1, 0, 0, 1, -7054, -68)">
					<path id="Rectangle_83-6_1_" class="st23" d="M120.1,487.6L120.1,487.6c4.2,0,7.6,3.6,7.6,8l0,0c0,4.4-3.4,8-7.6,8l0,0
						c-4.2,0-7.6-3.6-7.6-8l0,0C112.5,491.2,115.9,487.6,120.1,487.6z"/>
				</g>
				<text transform="matrix(0.9467 0 0 1 -6915.3862 432.0332)" class="st21 st7 st22">Preparing</text>
				<text transform="matrix(0.9467 0 0 1 -6915.3862 448.0596)" class="st14 st7 st22">Our chefs are busy creating a delicious</text>
				<text transform="matrix(0.9467 0 0 1 -6915.3862 464.0869)" class="st14 st7 st22">meal for you. Shouldn&apos;t take long!</text>
			</g>
			<g id="Group_2295_1_" transform="translate(7054 147)">
				<g transform="matrix(1, 0, 0, 1, -7054, -147)">
					<path id="Rectangle_83-7_1_" class="st23" d="M120.1,557.9L120.1,557.9c4.2,0,7.6,3.6,7.6,8l0,0c0,4.4-3.4,8-7.6,8l0,0
						c-4.2,0-7.6-3.6-7.6-8l0,0C112.5,561.5,115.9,557.9,120.1,557.9z"/>
				</g>
				<text transform="matrix(0.9467 0 0 1 -6915.3862 423.3721)" class="st21 st7 st22">Dispatched</text>
				<text transform="matrix(0.9467 0 0 1 -6915.3862 439.3984)" class="st14 st7 st22">Your order is on the way. Our drivers will</text>
				<text transform="matrix(0.9467 0 0 1 -6915.3862 455.4248)" class="st14 st7 st22">do the best to have the food in no time.</text>
			</g>
			<g id="Group_2296_1_" transform="translate(7054 226)">
				<g transform="matrix(1, 0, 0, 1, -7054, -226)">
					<path id="Rectangle_83-8_1_" class="st23" d="M120.1,628.2L120.1,628.2c4.2,0,7.6,3.6,7.6,8l0,0c0,4.4-3.4,8-7.6,8l0,0
						c-4.2,0-7.6-3.6-7.6-8l0,0C112.5,631.8,115.9,628.2,120.1,628.2z"/>
				</g>
				<text transform="matrix(0.9467 0 0 1 -6915.3862 414.7109)" class="st21 st7 st22">Delivered</text>
				<text transform="matrix(0.9467 0 0 1 -6915.3862 430.7373)" class="st14 st7 st22">Hope the food was good and you enjoyed</text>
				<text transform="matrix(0.9467 0 0 1 -6915.3862 446.7637)" class="st14 st7 st22">your meal. Don&apos;t forget to leave a feedback.</text>
			</g>
			<g transform="matrix(1, 0, 0, 1, 0, 0)">
				
					<linearGradient id="Rectangle_84-2_2_" gradientUnits="userSpaceOnUse" x1="8.7049" y1="860.6802" x2="8.7049" y2="861.6089" gradientTransform="matrix(18 0 0 -18 -36.6201 15925.5)">
					<stop  offset="0" style="stop-color:#FF7920"/>
					<stop  offset="1" style="stop-color:#F79432"/>
				</linearGradient>
				<path id="Rectangle_84-2_1_" class="st24" d="M120.1,417.2L120.1,417.2c4.2,0,7.6,3.6,7.6,8l0,0c0,4.4-3.4,8-7.6,8l0,0
					c-4.2,0-7.6-3.6-7.6-8l0,0C112.5,420.8,115.9,417.2,120.1,417.2z"/>
			</g>
			<path id="Combined-Shape-2_1_" class="st1" d="M119.7,426.5l3.6-3.8l1.2,1.3l-4.8,5l-3-3.1l1.2-1.3L119.7,426.5z"/>
		</g>
	</g>
</g>
</svg>
