<svg xmlns="http://www.w3.org/2000/svg" xmlns:xlink="http://www.w3.org/1999/xlink" viewBox="7054 10 375 667">
  <defs>
    <style>
      .cls-1 {
        clip-path: url(#clip-Tracking_1);
      }

      .cls-11, .cls-2 {
        fill: #fff;
      }

      .cls-13, .cls-3, .cls-6, .cls-8 {
        fill: #848282;
      }

      .cls-3 {
        stroke: rgba(93,93,93,0);
      }

      .cls-4, .cls-7 {
        fill: #4b4b4b;
      }

      .cls-4 {
        font-size: 16px;
        font-family: SourceSansPro-Bold, Source Sans Pro;
        font-weight: 700;
      }

      .cls-5 {
        fill: none;
      }

      .cls-7 {
        font-size: 30px;
      }

      .cls-13, .cls-15, .cls-7 {
        font-family: SourceSansPro-Regular, Source Sans Pro;
      }

      .cls-8 {
        font-size: 20px;
        font-family: SourceSansPro-Light, Source Sans Pro;
        font-weight: 300;
      }

      .cls-9 {
        fill: #bcbcbc;
      }

      .cls-10 {
        fill: url(#linear-gradient);
      }

      .cls-11 {
        fill-rule: evenodd;
      }

      .cls-12, .cls-15 {
        fill: #4d4d4d;
        font-size: 14px;
      }

      .cls-12 {
        font-family: SourceSansPro-SemiBold, Source Sans Pro;
        font-weight: 600;
      }

      .cls-13 {
        font-weight: 400;
      }

      .cls-14 {
        fill: #f5f5f5;
        stroke: #f79432;
      }

      .cls-16 {
        fill: #f1f1f1;
      }

      .cls-17 {
        filter: url(#Rectangle_84);
      }

      .cls-18 {
        filter: url(#Rectangle_83-4);
      }

      .cls-19 {
        filter: url(#Rectangle_83-3);
      }

      .cls-20 {
        filter: url(#Rectangle_83-2);
      }

      .cls-21 {
        filter: url(#Rectangle_83);
      }

      .cls-22 {
        filter: url(#Background);
      }
    </style>
    <filter id="Background" x="7042" y="0" width="399" height="100.092" filterUnits="userSpaceOnUse">
      <feOffset dy="2" input="SourceAlpha"/>
      <feGaussianBlur stdDeviation="4" result="blur"/>
      <feFlood flood-opacity="0.098"/>
      <feComposite operator="in" in2="blur"/>
      <feComposite in="SourceGraphic"/>
    </filter>
    <linearGradient id="linear-gradient" x1="0.5" y1="1" x2="0.5" y2="-0.043" gradientUnits="objectBoundingBox">
      <stop offset="0" stop-color="#ff7920"/>
      <stop offset="1" stop-color="#f79432"/>
    </linearGradient>
    <filter id="Rectangle_83" x="7065" y="242" width="36" height="36" filterUnits="userSpaceOnUse">
      <feOffset dy="3" input="SourceAlpha"/>
      <feGaussianBlur stdDeviation="3" result="blur-2"/>
      <feFlood flood-opacity="0.161"/>
      <feComposite operator="in" in2="blur-2"/>
      <feComposite in="SourceGraphic"/>
    </filter>
    <filter id="Rectangle_83-2" x="7064.5" y="401.5" width="37" height="37" filterUnits="userSpaceOnUse">
      <feOffset dy="3" input="SourceAlpha"/>
      <feGaussianBlur stdDeviation="3" result="blur-3"/>
      <feFlood flood-opacity="0.161"/>
      <feComposite operator="in" in2="blur-3"/>
      <feComposite in="SourceGraphic"/>
    </filter>
    <filter id="Rectangle_83-3" x="7064.5" y="480.5" width="37" height="37" filterUnits="userSpaceOnUse">
      <feOffset dy="3" input="SourceAlpha"/>
      <feGaussianBlur stdDeviation="3" result="blur-4"/>
      <feFlood flood-opacity="0.161"/>
      <feComposite operator="in" in2="blur-4"/>
      <feComposite in="SourceGraphic"/>
    </filter>
    <filter id="Rectangle_83-4" x="7064.5" y="559.5" width="37" height="37" filterUnits="userSpaceOnUse">
      <feOffset dy="3" input="SourceAlpha"/>
      <feGaussianBlur stdDeviation="3" result="blur-5"/>
      <feFlood flood-opacity="0.161"/>
      <feComposite operator="in" in2="blur-5"/>
      <feComposite in="SourceGraphic"/>
    </filter>
    <filter id="Rectangle_84" x="7065" y="323" width="36" height="36" filterUnits="userSpaceOnUse">
      <feOffset dy="3" input="SourceAlpha"/>
      <feGaussianBlur stdDeviation="3" result="blur-6"/>
      <feFlood flood-opacity="0.161"/>
      <feComposite operator="in" in2="blur-6"/>
      <feComposite in="SourceGraphic"/>
    </filter>
    <clipPath id="clip-Tracking_1">
      <rect x="7054" y="10" width="375" height="667"/>
    </clipPath>
  </defs>
  <g id="Tracking_1" data-name="Tracking – 1" class="cls-1">
    <rect class="cls-16" x="7054" y="10" width="375" height="667"/>
    <g id="Top_Bar" data-name="Top Bar" transform="translate(7054 10)">
      <g id="Group_2282" data-name="Group 2282">
        <g id="Background-2" data-name="Background" transform="translate(-813 -113)">
          <g class="cls-22" transform="matrix(1, 0, 0, 1, -6241, 103)">
            <rect id="Background-3" data-name="Background" class="cls-2" width="375" height="76.092" transform="translate(7054 10)"/>
          </g>
          <g id="Group_278" data-name="Group 278" transform="translate(1158 154)">
            <path id="Path_1532" data-name="Path 1532" class="cls-3" d="M5.4,14.4a1.8,1.8,0,1,0,1.8,1.8A1.805,1.805,0,0,0,5.4,14.4ZM0,0V1.8H1.8L5.04,8.64,3.78,10.8a3.2,3.2,0,0,0-.18.9,1.805,1.805,0,0,0,1.8,1.8H16.2V11.7H5.76a.194.194,0,0,1-.18-.18v-.09L6.39,9.9h6.66A1.641,1.641,0,0,0,14.58,9l3.24-5.85A.5.5,0,0,0,18,2.7a.85.85,0,0,0-.9-.9H3.78L2.97,0ZM14.4,14.4a1.8,1.8,0,1,0,1.8,1.8A1.805,1.805,0,0,0,14.4,14.4Z" transform="translate(0)"/>
          </g>
        </g>
        <g id="Group_2265" data-name="Group 2265" transform="translate(0 -12)">
          <text id="Title" class="cls-4" transform="translate(188 68)"><tspan x="-52.552" y="0">Order Tracking</tspan></text>
        </g>
      </g>
      <g id="Left_Accessory" data-name="Left Accessory" transform="translate(0 40)">
        <rect id="boundary" class="cls-5" width="180" height="44"/>
        <g id="Chevron_Selected" data-name="Chevron Selected" transform="translate(7 8)">
          <rect id="background-4" data-name="background" class="cls-5" width="16" height="28"/>
        </g>
      </g>
      <g id="Menu" transform="translate(-15)">
        <rect id="Rectangle_133" data-name="Rectangle 133" class="cls-2" width="29" height="31" transform="translate(20 35)"/>
        <rect id="Rectangle_54" data-name="Rectangle 54" class="cls-6" width="18" height="2" rx="1" transform="translate(25 42)"/>
        <rect id="Rectangle_55" data-name="Rectangle 55" class="cls-6" width="11" height="2" rx="1" transform="translate(25 47)"/>
        <rect id="Rectangle_56" data-name="Rectangle 56" class="cls-6" width="22" height="2" rx="1" transform="translate(25 52)"/>
        <rect id="Rectangle_57" data-name="Rectangle 57" class="cls-6" width="17" height="2" rx="1" transform="translate(25 57)"/>
      </g>
    </g>
    <g id="Welcome" transform="translate(6937 -205)">
      <text id="Your_food_is_on_the_way_" data-name="Your food is on the way!" class="cls-7" transform="translate(142 335)"><tspan x="0" y="0">Your food is on the way!</tspan></text>
      <text id="We_received_your_order_and_we_re_moving_as_fast_as_we_can._Below_you_can_see_the_progress_of_your_order._" data-name="We received your order and we&apos;re 
moving as fast as we can. Below you 
can see the progress of your order.
" class="cls-8" transform="translate(142 368)"><tspan x="0" y="0">We received your order and we&apos;re </tspan><tspan x="0" y="25">moving as fast as we can. Below you </tspan><tspan x="0" y="50">can see the progress of your order.</tspan><tspan x="0" y="75"></tspan></text>
    </g>
    <g id="Group_2292" data-name="Group 2292" transform="translate(7078 252)">
      <rect id="Rectangle-33" class="cls-9" width="2" height="323" transform="translate(4)"/>
      <g id="Rectangle-9">
        <g class="cls-21" transform="matrix(1, 0, 0, 1, -7078, -252)">
          <rect id="Rectangle_83-5" data-name="Rectangle 83" class="cls-10" width="18" height="18" rx="9" transform="translate(7074 248)"/>
        </g>
        <path id="Combined-Shape" class="cls-11" d="M7.6,71.1h6v2h-8v-5h2Z" transform="translate(-51.108 -38.537) rotate(-45)"/>
      </g>
    </g>
    <text id="First_Name" data-name="First Name" class="cls-12" transform="translate(7105 263)"><tspan x="0" y="0">Order Received</tspan><tspan class="cls-13"><tspan x="0" y="18">Seal Your Meal received your order. You will</tspan><tspan x="0" y="36">get notified once the order is accepted.</tspan></tspan></text>
    <g id="Group_2293" data-name="Group 2293" transform="translate(7054 -11)">
      <text id="First_Name-2" data-name="First Name" class="cls-12" transform="translate(51 354)"><tspan x="0" y="0">Order Accepted</tspan><tspan class="cls-13"><tspan x="0" y="18">Your payment has been accepted. Our chefs</tspan><tspan x="0" y="36">started cooking your meal.</tspan></tspan></text>
    </g>
    <g id="Group_2294" data-name="Group 2294" transform="translate(7054 68)">
      <g class="cls-20" transform="matrix(1, 0, 0, 1, -7054, -68)">
        <rect id="Rectangle_83-6" data-name="Rectangle 83" class="cls-14" width="18" height="18" rx="9" transform="translate(7074 408)"/>
      </g>
      <text id="First_Name-3" data-name="First Name" class="cls-15" transform="translate(51 354)"><tspan x="0" y="0">Preparing</tspan><tspan class="cls-6"><tspan x="0" y="18">Our chefs are busy creating a delicious</tspan><tspan x="0" y="36">meal for you. Shouldn&apos;t take long!</tspan></tspan></text>
    </g>
    <g id="Group_2295" data-name="Group 2295" transform="translate(7054 147)">
      <g class="cls-19" transform="matrix(1, 0, 0, 1, -7054, -147)">
        <rect id="Rectangle_83-7" data-name="Rectangle 83" class="cls-14" width="18" height="18" rx="9" transform="translate(7074 487)"/>
      </g>
      <text id="First_Name-4" data-name="First Name" class="cls-15" transform="translate(51 354)"><tspan x="0" y="0">Dispatched</tspan><tspan class="cls-6"><tspan x="0" y="18">Your order is on the way. Our drivers will</tspan><tspan x="0" y="36">do the best to have the food in no time.</tspan></tspan></text>
    </g>
    <g id="Group_2296" data-name="Group 2296" transform="translate(7054 226)">
      <g class="cls-18" transform="matrix(1, 0, 0, 1, -7054, -226)">
        <rect id="Rectangle_83-8" data-name="Rectangle 83" class="cls-14" width="18" height="18" rx="9" transform="translate(7074 566)"/>
      </g>
      <text id="First_Name-5" data-name="First Name" class="cls-15" transform="translate(51 354)"><tspan x="0" y="0">Delivered</tspan><tspan class="cls-6"><tspan x="0" y="18">Hope the food was good and you enjoyed</tspan><tspan x="0" y="36">your meal. Don&apos;t forget to leave a feedback.</tspan></tspan></text>
    </g>
    <g class="cls-17" transform="matrix(1, 0, 0, 1, 0, 0)">
      <rect id="Rectangle_84-2" data-name="Rectangle 84" class="cls-10" width="18" height="18" rx="9" transform="translate(7074 329)"/>
    </g>
    <path id="Combined-Shape-2" data-name="Combined-Shape" class="cls-11" d="M7.6,71.1h6v2h-8v-5h2Z" transform="translate(7026.892 294.463) rotate(-45)"/>
  </g>
</svg>
