<svg xmlns="http://www.w3.org/2000/svg" viewBox="2838 2869 21.497 18">
  <defs>
    <style>
      .cls-1 {
        fill: #a2a3a8;
      }
    </style>
  </defs>
  <path id="Twitter" class="cls-1" d="M884.952,145.044a7.975,7.975,0,0,1-2.809,1.089,4.419,4.419,0,0,0-3.21-1.433,4.478,4.478,0,0,0-4.414,4.529,6.332,6.332,0,0,0,.115,1.032,12.412,12.412,0,0,1-9.057-4.7,4.4,4.4,0,0,0-.573,2.293,4.774,4.774,0,0,0,1.949,3.783,4.075,4.075,0,0,1-2.006-.573v.057a4.443,4.443,0,0,0,3.554,4.414,3.693,3.693,0,0,1-1.147.172,3.527,3.527,0,0,1-.8-.057,4.5,4.5,0,0,0,4.127,3.153,8.654,8.654,0,0,1-5.446,1.949,6.231,6.231,0,0,1-1.032-.057,12.346,12.346,0,0,0,6.764,2.006c8.083,0,12.554-6.879,12.554-12.841v-.573a8.525,8.525,0,0,0,2.178-2.35,7.867,7.867,0,0,1-2.522.688A5.642,5.642,0,0,0,884.952,145.044Z" transform="translate(1973.8 2724.3)"/>
</svg>
